<svg width="24" height="24" viewBox="0 0 24 24" fill="none" xmlns="http://www.w3.org/2000/svg">
<path d="M19.2572 14.1629C18.3581 14.7094 17.3254 14.9969 16.2732 14.9935C15.3916 14.9865 14.5201 14.8062 13.7082 14.4629C13.0824 15.3463 12.7475 16.4028 12.75 17.4854V20.2501C12.7503 20.3529 12.7293 20.4546 12.6886 20.549C12.6478 20.6434 12.5881 20.7284 12.5131 20.7988C12.4381 20.8691 12.3494 20.9233 12.2526 20.9579C12.1558 20.9925 12.0529 21.0069 11.9503 21.0001C11.7576 20.9833 11.5783 20.8942 11.4484 20.7508C11.3185 20.6074 11.2476 20.4201 11.25 20.2266V19.0604L7.62941 15.4397C7.09119 15.6405 6.52197 15.7456 5.94753 15.7501C5.15673 15.752 4.38073 15.5356 3.70503 15.1247C1.66222 13.8835 0.562535 11.0269 0.775347 7.48037C0.786062 7.29689 0.863779 7.12373 0.993742 6.99376C1.1237 6.8638 1.29686 6.78608 1.48035 6.77537C5.02691 6.56631 7.88347 7.66224 9.12097 9.70506C9.60717 10.5058 9.81943 11.443 9.72566 12.3751C9.71983 12.4473 9.69321 12.5163 9.64901 12.5737C9.60481 12.6311 9.54493 12.6744 9.4766 12.6985C9.40828 12.7226 9.33444 12.7264 9.264 12.7094C9.19357 12.6925 9.12956 12.6554 9.07972 12.6029L7.27972 10.7185C7.13793 10.5838 6.94911 10.5098 6.75354 10.5123C6.55797 10.5148 6.37111 10.5936 6.23281 10.7319C6.09451 10.8702 6.01571 11.0571 6.0132 11.2526C6.0107 11.4482 6.08469 11.637 6.21941 11.7788L11.2707 16.9585C11.2763 16.8854 11.2828 16.8122 11.2903 16.7401C11.4544 15.3495 12.068 14.0506 13.0378 13.0407L17.7807 8.02881C17.9214 7.8882 18.0005 7.69745 18.0006 7.49851C18.0007 7.29958 17.9217 7.10876 17.7811 6.96803C17.6405 6.8273 17.4498 6.74819 17.2508 6.7481C17.0519 6.74801 16.8611 6.82695 16.7203 6.96756L12.1266 11.8257C12.0806 11.8744 12.0224 11.9099 11.9581 11.9285C11.8937 11.9471 11.8256 11.9481 11.7607 11.9315C11.6958 11.9148 11.6366 11.8811 11.5892 11.8338C11.5417 11.7865 11.5078 11.7274 11.491 11.6626C11.0466 10.0238 11.2425 8.39256 12.091 6.99193C13.7653 4.22818 17.6616 2.74881 22.5141 3.03381C22.6976 3.04452 22.8707 3.12224 23.0007 3.2522C23.1307 3.38216 23.2084 3.55533 23.2191 3.73881C23.5003 8.59225 22.021 12.4885 19.2572 14.1629Z" fill="#B9C2D5"/>
<path d="M19.2572 14.1629C18.3581 14.7094 17.3254 14.9969 16.2732 14.9935C15.3916 14.9865 14.5201 14.8062 13.7082 14.4629C13.0824 15.3463 12.7475 16.4028 12.75 17.4854V20.2501C12.7503 20.3529 12.7293 20.4546 12.6886 20.549C12.6478 20.6434 12.5881 20.7284 12.5131 20.7988C12.4381 20.8691 12.3494 20.9233 12.2526 20.9579C12.1558 20.9925 12.0529 21.0069 11.9503 21.0001C11.7576 20.9833 11.5783 20.8942 11.4484 20.7508C11.3185 20.6074 11.2476 20.4201 11.25 20.2266V19.0604L7.62941 15.4397C7.09119 15.6405 6.52197 15.7456 5.94753 15.7501C5.15673 15.752 4.38073 15.5356 3.70503 15.1247C1.66222 13.8835 0.562535 11.0269 0.775347 7.48037C0.786062 7.29689 0.863779 7.12373 0.993742 6.99376C1.1237 6.8638 1.29686 6.78608 1.48035 6.77537C5.02691 6.56631 7.88347 7.66224 9.12097 9.70506C9.60717 10.5058 9.81943 11.443 9.72566 12.3751C9.71983 12.4473 9.69321 12.5163 9.64901 12.5737C9.60481 12.6311 9.54493 12.6744 9.4766 12.6985C9.40828 12.7226 9.33444 12.7264 9.264 12.7094C9.19357 12.6925 9.12956 12.6554 9.07972 12.6029L7.27972 10.7185C7.13793 10.5838 6.94911 10.5098 6.75354 10.5123C6.55797 10.5148 6.37111 10.5936 6.23281 10.7319C6.09451 10.8702 6.01571 11.0571 6.0132 11.2526C6.0107 11.4482 6.08469 11.637 6.21941 11.7788L11.2707 16.9585C11.2763 16.8854 11.2828 16.8122 11.2903 16.7401C11.4544 15.3495 12.068 14.0506 13.0378 13.0407L17.7807 8.02881C17.9214 7.8882 18.0005 7.69745 18.0006 7.49851C18.0007 7.29958 17.9217 7.10876 17.7811 6.96803C17.6405 6.8273 17.4498 6.74819 17.2508 6.7481C17.0519 6.74801 16.8611 6.82695 16.7203 6.96756L12.1266 11.8257C12.0806 11.8744 12.0224 11.9099 11.9581 11.9285C11.8937 11.9471 11.8256 11.9481 11.7607 11.9315C11.6958 11.9148 11.6366 11.8811 11.5892 11.8338C11.5417 11.7865 11.5078 11.7274 11.491 11.6626C11.0466 10.0238 11.2425 8.39256 12.091 6.99193C13.7653 4.22818 17.6616 2.74881 22.5141 3.03381C22.6976 3.04452 22.8707 3.12224 23.0007 3.2522C23.1307 3.38216 23.2084 3.55533 23.2191 3.73881C23.5003 8.59225 22.021 12.4885 19.2572 14.1629Z" fill="url(#paint0_linear_4022_251)"/>
<path d="M19.2572 14.1629C18.3581 14.7094 17.3254 14.9969 16.2732 14.9935C15.3916 14.9865 14.5201 14.8062 13.7082 14.4629C13.0824 15.3463 12.7475 16.4028 12.75 17.4854V20.2501C12.7503 20.3529 12.7293 20.4546 12.6886 20.549C12.6478 20.6434 12.5881 20.7284 12.5131 20.7988C12.4381 20.8691 12.3494 20.9233 12.2526 20.9579C12.1558 20.9925 12.0529 21.0069 11.9503 21.0001C11.7576 20.9833 11.5783 20.8942 11.4484 20.7508C11.3185 20.6074 11.2476 20.4201 11.25 20.2266V19.0604L7.62941 15.4397C7.09119 15.6405 6.52197 15.7456 5.94753 15.7501C5.15673 15.752 4.38073 15.5356 3.70503 15.1247C1.66222 13.8835 0.562535 11.0269 0.775347 7.48037C0.786062 7.29689 0.863779 7.12373 0.993742 6.99376C1.1237 6.8638 1.29686 6.78608 1.48035 6.77537C5.02691 6.56631 7.88347 7.66224 9.12097 9.70506C9.60717 10.5058 9.81943 11.443 9.72566 12.3751C9.71983 12.4473 9.69321 12.5163 9.64901 12.5737C9.60481 12.6311 9.54493 12.6744 9.4766 12.6985C9.40828 12.7226 9.33444 12.7264 9.264 12.7094C9.19357 12.6925 9.12956 12.6554 9.07972 12.6029L7.27972 10.7185C7.13793 10.5838 6.94911 10.5098 6.75354 10.5123C6.55797 10.5148 6.37111 10.5936 6.23281 10.7319C6.09451 10.8702 6.01571 11.0571 6.0132 11.2526C6.0107 11.4482 6.08469 11.637 6.21941 11.7788L11.2707 16.9585C11.2763 16.8854 11.2828 16.8122 11.2903 16.7401C11.4544 15.3495 12.068 14.0506 13.0378 13.0407L17.7807 8.02881C17.9214 7.8882 18.0005 7.69745 18.0006 7.49851C18.0007 7.29958 17.9217 7.10876 17.7811 6.96803C17.6405 6.8273 17.4498 6.74819 17.2508 6.7481C17.0519 6.74801 16.8611 6.82695 16.7203 6.96756L12.1266 11.8257C12.0806 11.8744 12.0224 11.9099 11.9581 11.9285C11.8937 11.9471 11.8256 11.9481 11.7607 11.9315C11.6958 11.9148 11.6366 11.8811 11.5892 11.8338C11.5417 11.7865 11.5078 11.7274 11.491 11.6626C11.0466 10.0238 11.2425 8.39256 12.091 6.99193C13.7653 4.22818 17.6616 2.74881 22.5141 3.03381C22.6976 3.04452 22.8707 3.12224 23.0007 3.2522C23.1307 3.38216 23.2084 3.55533 23.2191 3.73881C23.5003 8.59225 22.021 12.4885 19.2572 14.1629Z" fill="url(#paint1_linear_4022_251)"/>
<defs>
<linearGradient id="paint0_linear_4022_251" x1="19.8668" y1="6.29094" x2="7.03299" y2="21.658" gradientUnits="userSpaceOnUse">
<stop stop-color="#94FFDF"/>
<stop offset="1" stop-color="#64F930"/>
</linearGradient>
<linearGradient id="paint1_linear_4022_251" x1="11.6594" y1="3.28339" x2="16.2662" y2="19.3736" gradientUnits="userSpaceOnUse">
<stop offset="0.02" stop-color="#30F9D5"/>
<stop offset="1" stop-color="#94DFFF"/>
</linearGradient>
</defs>
</svg>
