<?xml version="1.0" encoding="utf-8"?>
<!-- Generator: Adobe Illustrator 26.0.1, SVG Export Plug-In . SVG Version: 6.00 Build 0)  -->
<svg version="1.1" id="Слой_1" xmlns="http://www.w3.org/2000/svg" xmlns:xlink="http://www.w3.org/1999/xlink" x="0px" y="0px"
	 viewBox="0 0 124.8 44.1" style="enable-background:new 0 0 124.8 44.1;" xml:space="preserve">
<style type="text/css">
	.st0{fill:#1D1D1B;}
	.st1{fill:#BAC3D5;}
	.st2{fill:url(#SVGID_1_);}
	.st3{fill:url(#SVGID_00000130641645561087745860000012533570574073173681_);}
	.st4{fill:url(#SVGID_00000044895943895696112870000011092504958821925767_);}
	.st5{fill:url(#SVGID_00000075850730123541535000000014992196966603004056_);}
</style>
<path class="st0" d="M4.4,16.7l0.4,0.1c0.6-2.1,2.8-3.6,5.8-3.6c3.3,0,5.9,2,5.9,4.5v7.4h-1.7V18c0-2.1-2-3.4-4.8-3.4S5,16,5,18.1
	v7.1H3.4V7.8H5v5.6L4.4,16.7z"/>
<path class="st0" d="M26.2,24.1c2.8,0,4.8-1.1,5.3-2.9l1.5,0.3c-0.8,2.5-3.4,4-6.9,4c-4.6,0-7.4-2.3-7.4-6.2s2.7-6.1,7.1-6.1
	s7.2,2.5,7.2,6v0.6H20.4C20.7,22.5,22.8,24.1,26.2,24.1z M31.4,18.5c0-2.2-2.3-3.9-5.5-3.9s-5,1.4-5.4,3.9H31.4z"/>
<path class="st0" d="M46.3,25.2l0.5-3.1L46.4,22c-0.8,2.1-3.3,3.5-6.6,3.5c-3,0-5-1.2-5-3.2s1.6-3.2,4-3.4l7.4-0.4v-1
	c0-1.7-1.9-2.9-4.8-2.9s-4.8,1.1-5.1,2.7l-1.6-0.3c0.5-2.4,3.1-3.9,6.6-3.9c3.7,0,6.5,1.7,6.5,4v7.9L46.3,25.2z M40.1,24
	c3.4,0,6.1-1.5,6.1-3.5v-0.6l-7.2,0.4c-1.6,0.1-2.6,0.8-2.6,1.9C36.5,23.3,37.8,24,40.1,24z"/>
<path class="st0" d="M52.2,7.8v17.3h-1.6V7.8H52.2z"/>
<path class="st0" d="M59.8,21.6c0,1.9,0.4,2.1,2.7,2.1h2.8v1.5h-3.2c-2.4,0-3.9-0.7-3.9-3.3v-6.8H54v-1.5h4.2v-3.4l1.6-0.3v3.7h5.5
	v1.5h-5.5V21.6z"/>
<path class="st0" d="M68.1,16.7l0.4,0.1c0.6-2.1,2.8-3.6,5.8-3.6c3.3,0,5.8,2,5.8,4.5v7.4h-1.7V18c0-2.1-1.9-3.4-4.8-3.4
	s-5,1.4-5,3.4v7.1h-1.7V7.8h1.6v5.6L68.1,16.7z"/>
<path class="st0" d="M14,27.2h3.7L16.5,30l0.6,0.3c0.5-1.1,1.3-2,2.2-2.6c1-0.6,2.1-0.9,3.2-0.9c1.5-0.1,3,0.5,4,1.6
	c0.9,1.3,1.3,2.9,0.9,4.5c-0.3,1.8-1.2,3.4-2.5,4.6c-1.3,1.1-2.9,1.7-4.6,1.7c-1,0.1-2-0.3-2.9-0.9c-0.8-0.7-1.2-1.6-1.3-2.7
	l-0.7,0.3l0.4,3.4l-0.8,4.5h-4L14,27.2z M19.7,36c0.9,0,1.8-0.2,2.5-0.8c0.7-0.6,1.1-1.3,1.2-2.2c0.2-0.8,0.1-1.6-0.4-2.2
	c-0.6-0.6-1.4-0.8-2.3-0.8c-0.9,0-1.8,0.2-2.5,0.8c-0.7,0.6-1.1,1.4-1.2,2.2c-0.2,0.8-0.1,1.6,0.5,2.3C18.1,35.8,18.9,36.1,19.7,36z
	"/>
<path class="st0" d="M41.3,38.8h-3.7l1.2-3l-0.5-0.2c-0.5,1.1-1.2,2-2.2,2.7c-1,0.7-2.1,1.1-3.3,1.1c-1.2,0.1-2.4-0.4-3.2-1.4
	c-0.8-0.9-1.1-2.2-0.8-3.3l1.3-7.5h4l-1.3,7.3c-0.1,0.5,0.1,1,0.5,1.4c0.5,0.4,1.2,0.6,1.8,0.5c0.7,0,1.4-0.2,2-0.5
	c0.5-0.3,0.9-0.8,1-1.4l1.2-7.2h4L41.3,38.8z"/>
<path class="st0" d="M45.1,27.2h11.5l-0.8,4.5l-6.5,3.2l-1.7,0.3l-0.1,0.3h7.7l-0.6,3.2H43.1l0.9-4.9l6.2-3l1.9-0.2l0-0.3h-7.6
	L45.1,27.2z"/>
<path class="st0" d="M57.9,27.2h11.5l-0.8,4.5l-6.5,3.2l-1.7,0.3l-0.1,0.3h7.7l-0.6,3.2H55.9l0.9-4.9l6.2-3l1.9-0.2v-0.3h-7.5
	L57.9,27.2z"/>
<path class="st0" d="M72.1,21.5h4L73,38.8h-4L72.1,21.5z"/>
<path class="st0" d="M79.6,34c-0.1,0.6,0.2,1.1,0.7,1.4c0.7,0.4,1.4,0.5,2.2,0.5c0.7,0,1.3-0.1,1.9-0.3c0.5-0.1,0.9-0.5,1.1-0.9
	l3.8,0.5c-0.6,1.2-1.6,2.2-2.8,2.8c-1.4,0.7-3,1-4.5,1c-1.8,0.1-3.6-0.4-5-1.7c-1.1-1.2-1.6-2.9-1.1-4.5c0.3-1.8,1.2-3.4,2.7-4.5
	c1.6-1.1,3.5-1.7,5.4-1.6c1.8-0.1,3.5,0.5,4.8,1.6c1.1,1.2,1.5,2.8,1.1,4.3L89.5,34H79.6z M80.1,31.4H86c0.1-0.5-0.2-1-0.6-1.1
	c-0.6-0.3-1.3-0.5-2-0.4C81.6,29.9,80.5,30.4,80.1,31.4L80.1,31.4z"/>
<path class="st1" d="M84.4,2c0.2-0.7,0.9-1.1,1.6-0.9c8.8,2,15.1,6.6,16.6,12.4c0.8,3,0.3,6.1-1.3,8.7c-0.1,0.1-0.2,0.2-0.3,0.2
	c-0.1,0.1-0.2,0.1-0.4,0.1c-0.1,0-0.2,0-0.3-0.1c-0.1-0.1-0.2-0.2-0.2-0.3l-5.7-11c-0.2-0.3-0.5-0.6-0.8-0.7
	c-0.4-0.1-0.7-0.1-1.1,0.1c-0.3,0.2-0.6,0.5-0.7,0.8c-0.1,0.4,0,0.7,0.1,1.1l5.9,11.4c1.2,2.3,1.6,4.9,1.2,7.5c0,0.1,0,0.3-0.1,0.4
	l11.7-6.7c0.7-0.4,0.9-1.2,0.5-1.9c-0.4-0.7-1.2-0.9-1.9-0.6l-4.2,2.5c-0.1,0.1-0.2,0.1-0.4,0.1c-0.1,0-0.3,0-0.4-0.1
	c-0.1-0.1-0.2-0.2-0.2-0.3c0-0.1,0-0.3,0-0.4c0.3-1.7,1.2-3.3,2.4-4.4c3.3-3,8.9-3.5,15.2-1.3c0.3,0.1,0.6,0.3,0.8,0.6
	c0.2,0.3,0.2,0.7,0.1,1c-1.4,6.5-4.9,11-9.2,12.2c-1.4,0.4-2.9,0.4-4.3,0c-1-0.3-2-0.8-2.8-1.5L98,35.6l-0.6,2.1
	c-0.2,0.7-0.9,1.1-1.7,1c-0.4-0.1-0.7-0.3-0.9-0.7c-0.1-0.2-0.2-0.3-0.2-0.5c0-0.2,0-0.4,0-0.6l1.5-4.9c0.6-1.9,0.5-4-0.1-5.9
	c-1.6,0.2-3.3,0.1-4.9-0.4c-1.9-0.5-3.6-1.6-4.9-3C82.1,18.3,81.4,10.6,84.4,2z"/>
<linearGradient id="SVGID_1_" gradientUnits="userSpaceOnUse" x1="38.5069" y1="-5.9826" x2="14.5869" y2="22.6474" gradientTransform="matrix(-0.96 -0.28 -0.28 0.96 132.38 21.68)">
	<stop  offset="0" style="stop-color:#A4D5CA"/>
	<stop  offset="1" style="stop-color:#7FBA28"/>
</linearGradient>
<path class="st2" d="M84.4,2c0.2-0.7,0.9-1.1,1.6-0.9c8.8,2,15.1,6.6,16.6,12.4c0.8,3,0.3,6.1-1.3,8.7c-0.1,0.1-0.2,0.2-0.3,0.2
	c-0.1,0.1-0.2,0.1-0.4,0.1c-0.1,0-0.2,0-0.3-0.1c-0.1-0.1-0.2-0.2-0.2-0.3l-5.7-11c-0.2-0.3-0.5-0.6-0.8-0.7
	c-0.4-0.1-0.7-0.1-1.1,0.1c-0.3,0.2-0.6,0.5-0.7,0.8c-0.1,0.4,0,0.7,0.1,1.1l5.9,11.4c1.2,2.3,1.6,4.9,1.2,7.5c0,0.1,0,0.3-0.1,0.4
	l11.7-6.7c0.7-0.4,0.9-1.2,0.5-1.9c-0.4-0.7-1.2-0.9-1.9-0.6l-4.2,2.5c-0.1,0.1-0.2,0.1-0.4,0.1c-0.1,0-0.3,0-0.4-0.1
	c-0.1-0.1-0.2-0.2-0.2-0.3c0-0.1,0-0.3,0-0.4c0.3-1.7,1.2-3.3,2.4-4.4c3.3-3,8.9-3.5,15.2-1.3c0.3,0.1,0.6,0.3,0.8,0.6
	c0.2,0.3,0.2,0.7,0.1,1c-1.4,6.5-4.9,11-9.2,12.2c-1.4,0.4-2.9,0.4-4.3,0c-1-0.3-2-0.8-2.8-1.5L98,35.6l-0.6,2.1
	c-0.2,0.7-0.9,1.1-1.7,1c-0.4-0.1-0.7-0.3-0.9-0.7c-0.1-0.2-0.2-0.3-0.2-0.5c0-0.2,0-0.4,0-0.6l1.5-4.9c0.6-1.9,0.5-4-0.1-5.9
	c-1.6,0.2-3.3,0.1-4.9-0.4c-1.9-0.5-3.6-1.6-4.9-3C82.1,18.3,81.4,10.6,84.4,2z"/>
<linearGradient id="SVGID_00000080924358288118196420000017510938660864366215_" gradientUnits="userSpaceOnUse" x1="28.7962" y1="-5.8762" x2="37.3762" y2="24.1038" gradientTransform="matrix(-0.96 -0.28 -0.28 0.96 132.38 21.68)">
	<stop  offset="2.000000e-02" style="stop-color:#70C3B9"/>
	<stop  offset="1" style="stop-color:#9AD7F7"/>
</linearGradient>
<path style="fill:url(#SVGID_00000080924358288118196420000017510938660864366215_);" d="M84.4,2c0.2-0.7,0.9-1.1,1.6-0.9
	c8.8,2,15.1,6.6,16.6,12.4c0.8,3,0.3,6.1-1.3,8.7c-0.1,0.1-0.2,0.2-0.3,0.2c-0.1,0.1-0.2,0.1-0.4,0.1c-0.1,0-0.2,0-0.3-0.1
	c-0.1-0.1-0.2-0.2-0.2-0.3l-5.7-11c-0.2-0.3-0.5-0.6-0.8-0.7c-0.4-0.1-0.7-0.1-1.1,0.1c-0.3,0.2-0.6,0.5-0.7,0.8
	c-0.1,0.4,0,0.7,0.1,1.1l5.9,11.4c1.2,2.3,1.6,4.9,1.2,7.5c0,0.1,0,0.3-0.1,0.4l11.7-6.7c0.7-0.4,0.9-1.2,0.5-1.9
	c-0.4-0.7-1.2-0.9-1.9-0.6l-4.2,2.5c-0.1,0.1-0.2,0.1-0.4,0.1c-0.1,0-0.3,0-0.4-0.1c-0.1-0.1-0.2-0.2-0.2-0.3c0-0.1,0-0.3,0-0.4
	c0.3-1.7,1.2-3.3,2.4-4.4c3.3-3,8.9-3.5,15.2-1.3c0.3,0.1,0.6,0.3,0.8,0.6c0.2,0.3,0.2,0.7,0.1,1c-1.4,6.5-4.9,11-9.2,12.2
	c-1.4,0.4-2.9,0.4-4.3,0c-1-0.3-2-0.8-2.8-1.5L98,35.6l-0.6,2.1c-0.2,0.7-0.9,1.1-1.7,1c-0.4-0.1-0.7-0.3-0.9-0.7
	c-0.1-0.2-0.2-0.3-0.2-0.5c0-0.2,0-0.4,0-0.6l1.5-4.9c0.6-1.9,0.5-4-0.1-5.9c-1.6,0.2-3.3,0.1-4.9-0.4c-1.9-0.5-3.6-1.6-4.9-3
	C82.1,18.3,81.4,10.6,84.4,2z"/>
<path class="st1" d="M84.4,2c0.2-0.7,0.9-1.1,1.6-0.9c8.8,2,15.1,6.6,16.6,12.4c0.8,3,0.3,6.1-1.3,8.7c-0.1,0.1-0.2,0.2-0.3,0.2
	c-0.1,0.1-0.2,0.1-0.4,0.1c-0.1,0-0.2,0-0.3-0.1c-0.1-0.1-0.2-0.2-0.2-0.3l-5.7-11c-0.2-0.3-0.5-0.6-0.8-0.7
	c-0.4-0.1-0.7-0.1-1.1,0.1c-0.3,0.2-0.6,0.5-0.7,0.8c-0.1,0.4,0,0.7,0.1,1.1l5.9,11.4c1.2,2.3,1.6,4.9,1.2,7.5c0,0.1,0,0.3-0.1,0.4
	l11.7-6.7c0.7-0.4,0.9-1.2,0.5-1.9c-0.4-0.7-1.2-0.9-1.9-0.6l-4.2,2.5c-0.1,0.1-0.2,0.1-0.4,0.1c-0.1,0-0.3,0-0.4-0.1
	c-0.1-0.1-0.2-0.2-0.2-0.3c0-0.1,0-0.3,0-0.4c0.3-1.7,1.2-3.3,2.4-4.4c3.3-3,8.9-3.5,15.2-1.3c0.3,0.1,0.6,0.3,0.8,0.6
	c0.2,0.3,0.2,0.7,0.1,1c-1.4,6.5-4.9,11-9.2,12.2c-1.4,0.4-2.9,0.4-4.3,0c-1-0.3-2-0.8-2.8-1.5L98,35.6l-0.6,2.1
	c-0.2,0.7-0.9,1.1-1.7,1c-0.4-0.1-0.7-0.3-0.9-0.7c-0.1-0.2-0.2-0.3-0.2-0.5c0-0.2,0-0.4,0-0.6l1.5-4.9c0.6-1.9,0.5-4-0.1-5.9
	c-1.6,0.2-3.3,0.1-4.9-0.4c-1.9-0.5-3.6-1.6-4.9-3C82.1,18.3,81.4,10.6,84.4,2z"/>
<linearGradient id="SVGID_00000178891937999706901350000006023266320725044926_" gradientUnits="userSpaceOnUse" x1="38.5069" y1="-5.9826" x2="14.5869" y2="22.6474" gradientTransform="matrix(-0.96 -0.28 -0.28 0.96 132.38 21.68)">
	<stop  offset="0" style="stop-color:#A4D5CA"/>
	<stop  offset="1" style="stop-color:#7FBA28"/>
</linearGradient>
<path style="fill:url(#SVGID_00000178891937999706901350000006023266320725044926_);" d="M84.4,2c0.2-0.7,0.9-1.1,1.6-0.9
	c8.8,2,15.1,6.6,16.6,12.4c0.8,3,0.3,6.1-1.3,8.7c-0.1,0.1-0.2,0.2-0.3,0.2c-0.1,0.1-0.2,0.1-0.4,0.1c-0.1,0-0.2,0-0.3-0.1
	c-0.1-0.1-0.2-0.2-0.2-0.3l-5.7-11c-0.2-0.3-0.5-0.6-0.8-0.7c-0.4-0.1-0.7-0.1-1.1,0.1c-0.3,0.2-0.6,0.5-0.7,0.8
	c-0.1,0.4,0,0.7,0.1,1.1l5.9,11.4c1.2,2.3,1.6,4.9,1.2,7.5c0,0.1,0,0.3-0.1,0.4l11.7-6.7c0.7-0.4,0.9-1.2,0.5-1.9
	c-0.4-0.7-1.2-0.9-1.9-0.6l-4.2,2.5c-0.1,0.1-0.2,0.1-0.4,0.1c-0.1,0-0.3,0-0.4-0.1c-0.1-0.1-0.2-0.2-0.2-0.3c0-0.1,0-0.3,0-0.4
	c0.3-1.7,1.2-3.3,2.4-4.4c3.3-3,8.9-3.5,15.2-1.3c0.3,0.1,0.6,0.3,0.8,0.6c0.2,0.3,0.2,0.7,0.1,1c-1.4,6.5-4.9,11-9.2,12.2
	c-1.4,0.4-2.9,0.4-4.3,0c-1-0.3-2-0.8-2.8-1.5L98,35.6l-0.6,2.1c-0.2,0.7-0.9,1.1-1.7,1c-0.4-0.1-0.7-0.3-0.9-0.7
	c-0.1-0.2-0.2-0.3-0.2-0.5c0-0.2,0-0.4,0-0.6l1.5-4.9c0.6-1.9,0.5-4-0.1-5.9c-1.6,0.2-3.3,0.1-4.9-0.4c-1.9-0.5-3.6-1.6-4.9-3
	C82.1,18.3,81.4,10.6,84.4,2z"/>
<linearGradient id="SVGID_00000046321130302398997420000014303939920362241424_" gradientUnits="userSpaceOnUse" x1="28.7962" y1="-5.8762" x2="37.3762" y2="24.1038" gradientTransform="matrix(-0.96 -0.28 -0.28 0.96 132.38 21.68)">
	<stop  offset="2.000000e-02" style="stop-color:#70C3B9"/>
	<stop  offset="1" style="stop-color:#9AD7F7"/>
</linearGradient>
<path style="fill:url(#SVGID_00000046321130302398997420000014303939920362241424_);" d="M84.4,2c0.2-0.7,0.9-1.1,1.6-0.9
	c8.8,2,15.1,6.6,16.6,12.4c0.8,3,0.3,6.1-1.3,8.7c-0.1,0.1-0.2,0.2-0.3,0.2c-0.1,0.1-0.2,0.1-0.4,0.1c-0.1,0-0.2,0-0.3-0.1
	c-0.1-0.1-0.2-0.2-0.2-0.3l-5.7-11c-0.2-0.3-0.5-0.6-0.8-0.7c-0.4-0.1-0.7-0.1-1.1,0.1c-0.3,0.2-0.6,0.5-0.7,0.8
	c-0.1,0.4,0,0.7,0.1,1.1l5.9,11.4c1.2,2.3,1.6,4.9,1.2,7.5c0,0.1,0,0.3-0.1,0.4l11.7-6.7c0.7-0.4,0.9-1.2,0.5-1.9
	c-0.4-0.7-1.2-0.9-1.9-0.6l-4.2,2.5c-0.1,0.1-0.2,0.1-0.4,0.1c-0.1,0-0.3,0-0.4-0.1c-0.1-0.1-0.2-0.2-0.2-0.3c0-0.1,0-0.3,0-0.4
	c0.3-1.7,1.2-3.3,2.4-4.4c3.3-3,8.9-3.5,15.2-1.3c0.3,0.1,0.6,0.3,0.8,0.6c0.2,0.3,0.2,0.7,0.1,1c-1.4,6.5-4.9,11-9.2,12.2
	c-1.4,0.4-2.9,0.4-4.3,0c-1-0.3-2-0.8-2.8-1.5L98,35.6l-0.6,2.1c-0.2,0.7-0.9,1.1-1.7,1c-0.4-0.1-0.7-0.3-0.9-0.7
	c-0.1-0.2-0.2-0.3-0.2-0.5c0-0.2,0-0.4,0-0.6l1.5-4.9c0.6-1.9,0.5-4-0.1-5.9c-1.6,0.2-3.3,0.1-4.9-0.4c-1.9-0.5-3.6-1.6-4.9-3
	C82.1,18.3,81.4,10.6,84.4,2z"/>
</svg>
