<?xml version="1.0" encoding="utf-8"?>
<!-- Generator: Adobe Illustrator 26.0.1, SVG Export Plug-In . SVG Version: 6.00 Build 0)  -->
<svg version="1.1" id="Слой_1" xmlns="http://www.w3.org/2000/svg" xmlns:xlink="http://www.w3.org/1999/xlink" x="0px" y="0px"
	 viewBox="0 0 1190.6 841.9" style="enable-background:new 0 0 1190.6 841.9;" xml:space="preserve">
<style type="text/css">
	.st0{fill:url(#SVGID_1_);}
</style>
<linearGradient id="SVGID_1_" gradientUnits="userSpaceOnUse" x1="8.2653" y1="840.8594" x2="13.5464" y2="823.6406" gradientTransform="matrix(42.0945 0 0 -42.0945 174.3307 35438.9219)">
	<stop  offset="2.000000e-02" style="stop-color:#30EDF9"/>
	<stop  offset="1" style="stop-color:#94D8FF"/>
</linearGradient>
<path class="st0" d="M1073.7,277.3c0,299-443.4,541.1-462.3,551.1c-5,2.7-10.5,4.1-16.2,4.1c-5.7,0-11.2-1.4-16.2-4.1
	c-18.9-10-462.3-252-462.3-551.1c0.1-70.2,28-137.5,77.7-187.2s117-77.6,187.2-77.7c88.2,0,165.5,37.9,213.6,102.1
	C643.4,50.4,720.7,12.5,808.9,12.5c70.2,0.1,137.5,28,187.2,77.7S1073.7,207.1,1073.7,277.3z"/>
</svg>
