<?xml version="1.0" encoding="utf-8"?>
<!-- Generator: Adobe Illustrator 26.0.1, SVG Export Plug-In . SVG Version: 6.00 Build 0)  -->
<svg version="1.1" id="Слой_1" xmlns="http://www.w3.org/2000/svg" xmlns:xlink="http://www.w3.org/1999/xlink" x="0px" y="0px"
	 viewBox="0 0 1190.6 841.9" style="enable-background:new 0 0 1190.6 841.9;" xml:space="preserve">
<style type="text/css">
	.st0{fill:url(#SVGID_1_);}
</style>
<linearGradient id="SVGID_1_" gradientUnits="userSpaceOnUse" x1="6.9052" y1="840.3975" x2="13.7534" y2="823.8994" gradientTransform="matrix(42.0945 0 0 -42.0945 174.3307 35438.9219)">
	<stop  offset="2.000000e-02" style="stop-color:#30EDF9"/>
	<stop  offset="1" style="stop-color:#94D8FF"/>
</linearGradient>
<path class="st0" d="M493.7,101.6c0-20.1,6-39.7,17.1-56.5c11.2-16.7,27-29.7,45.6-37.4C575,0,595.4-2,615.1,2
	c19.7,3.9,37.8,13.6,52,27.8c14.2,14.2,23.9,32.3,27.8,52s1.9,40.1-5.8,58.7c-7.7,18.6-20.7,34.4-37.4,45.6
	c-16.7,11.2-36.4,17.1-56.4,17.1c-26.9,0-52.8-10.7-71.8-29.8C504.4,154.4,493.7,128.6,493.7,101.6z M956.7,306.9
	c-2.6-13-9.7-24.7-20.1-33c-10.3-8.3-23.3-12.8-36.5-12.6H290.4c-13.2,0-26.1,4.5-36.4,12.8s-17.5,19.9-20.3,32.8
	c-2.8,12.9-1.2,26.4,4.7,38.3c5.9,11.9,15.7,21.3,27.7,26.9h0.2l195.6,86.1l-79.5,302.3c-6.1,13.9-6.5,29.6-1.1,43.8
	c5.4,14.2,16,25.7,29.8,32.1c7.7,3.6,16.1,5.5,24.6,5.6c10.9,0,21.7-3.1,30.9-8.9c9.3-5.8,16.7-14.1,21.5-24l107.3-184.9
	l107.3,185.1c6.7,13.6,18.4,24,32.7,29.1c14.3,5.1,29.9,4.4,43.7-1.9c13.8-6.3,24.5-17.8,29.9-31.9c5.4-14.1,5.2-29.8-0.8-43.7
	l-79.5-302.3l196-86.2c12.2-5.4,22-14.9,27.9-26.9C958.3,333.5,959.8,319.8,956.7,306.9z"/>
</svg>
