<?xml version="1.0" encoding="utf-8"?>
<!-- Generator: Adobe Illustrator 26.0.1, SVG Export Plug-In . SVG Version: 6.00 Build 0)  -->
<svg version="1.1" id="Слой_1" xmlns="http://www.w3.org/2000/svg" xmlns:xlink="http://www.w3.org/1999/xlink" x="0px" y="0px"
	 viewBox="0 0 150 150" style="enable-background:new 0 0 150 150;" xml:space="preserve">
<style type="text/css">
	.st0{fill:url(#SVGID_1_);}
</style>
<path d="M146.7,55.8v37.5c0,1.2-0.5,2.4-1.4,3.3c-0.9,0.9-2.1,1.4-3.3,1.4s-2.4-0.5-3.3-1.4c-0.9-0.9-1.4-2.1-1.4-3.3V55.8
	c0-1.2,0.5-2.4,1.4-3.3c0.9-0.9,2.1-1.4,3.3-1.4s2.4,0.5,3.3,1.4C146.2,53.3,146.7,54.5,146.7,55.8z M127.9,46.4v56.2
	c0,3.7-1.5,7.3-4.1,9.9c-2.6,2.6-6.2,4.1-9.9,4.1H15.4c-3.7,0-7.3-1.5-9.9-4.1c-2.6-2.6-4.1-6.2-4.1-9.9V46.4c0-3.7,1.5-7.3,4.1-9.9
	c2.6-2.6,6.2-4.1,9.9-4.1h98.4c3.7,0,7.3,1.5,9.9,4.1C126.4,39.1,127.9,42.6,127.9,46.4z M78,72c-0.4-0.7-1-1.2-1.7-1.6
	c-0.7-0.4-1.5-0.6-2.3-0.6H62.8l6-12c0.3-0.6,0.4-1.2,0.5-1.8c0-0.6,0-1.2-0.2-1.8c-0.2-0.6-0.5-1.1-0.9-1.6
	c-0.4-0.5-0.9-0.8-1.4-1.1c-0.6-0.3-1.2-0.4-1.8-0.5c-0.6,0-1.2,0-1.8,0.2c-0.6,0.2-1.1,0.5-1.6,0.9c-0.5,0.4-0.8,0.9-1.1,1.4
	l-9.4,18.7c-0.4,0.7-0.5,1.5-0.5,2.3c0,0.8,0.3,1.6,0.7,2.3c0.4,0.7,1,1.2,1.7,1.6c0.7,0.4,1.5,0.6,2.3,0.6h11.2l-6,12
	c-0.3,0.6-0.4,1.2-0.5,1.8c0,0.6,0,1.2,0.2,1.8c0.2,0.6,0.5,1.1,0.9,1.6c0.4,0.5,0.9,0.8,1.4,1.1c1.1,0.6,2.4,0.6,3.6,0.3
	c0.6-0.2,1.1-0.5,1.6-0.9c0.5-0.4,0.8-0.9,1.1-1.4l9.4-18.8c0.4-0.7,0.5-1.5,0.5-2.3C78.7,73.5,78.4,72.7,78,72z"/>
<linearGradient id="SVGID_1_" gradientUnits="userSpaceOnUse" x1="85.197" y1="49.5333" x2="70.7452" y2="25.692" gradientTransform="matrix(3.75 0 0 -3.75 -222.6378 216.5551)">
	<stop  offset="0" style="stop-color:#94FFDF"/>
	<stop  offset="1" style="stop-color:#64F930"/>
</linearGradient>
<path class="st0" d="M146.7,55.8v37.5c0,1.2-0.5,2.4-1.4,3.3c-0.9,0.9-2.1,1.4-3.3,1.4s-2.4-0.5-3.3-1.4c-0.9-0.9-1.4-2.1-1.4-3.3
	V55.8c0-1.2,0.5-2.4,1.4-3.3c0.9-0.9,2.1-1.4,3.3-1.4s2.4,0.5,3.3,1.4C146.2,53.3,146.7,54.5,146.7,55.8z M127.9,46.4v56.2
	c0,3.7-1.5,7.3-4.1,9.9c-2.6,2.6-6.2,4.1-9.9,4.1H15.4c-3.7,0-7.3-1.5-9.9-4.1c-2.6-2.6-4.1-6.2-4.1-9.9V46.4c0-3.7,1.5-7.3,4.1-9.9
	c2.6-2.6,6.2-4.1,9.9-4.1h98.4c3.7,0,7.3,1.5,9.9,4.1C126.4,39.1,127.9,42.6,127.9,46.4z M78,72c-0.4-0.7-1-1.2-1.7-1.6
	c-0.7-0.4-1.5-0.6-2.3-0.6H62.8l6-12c0.3-0.6,0.4-1.2,0.5-1.8c0-0.6,0-1.2-0.2-1.8c-0.2-0.6-0.5-1.1-0.9-1.6
	c-0.4-0.5-0.9-0.8-1.4-1.1c-0.6-0.3-1.2-0.4-1.8-0.5c-0.6,0-1.2,0-1.8,0.2c-0.6,0.2-1.1,0.5-1.6,0.9c-0.5,0.4-0.8,0.9-1.1,1.4
	l-9.4,18.7c-0.4,0.7-0.5,1.5-0.5,2.3c0,0.8,0.3,1.6,0.7,2.3c0.4,0.7,1,1.2,1.7,1.6c0.7,0.4,1.5,0.6,2.3,0.6h11.2l-6,12
	c-0.3,0.6-0.4,1.2-0.5,1.8c0,0.6,0,1.2,0.2,1.8c0.2,0.6,0.5,1.1,0.9,1.6c0.4,0.5,0.9,0.8,1.4,1.1c1.1,0.6,2.4,0.6,3.6,0.3
	c0.6-0.2,1.1-0.5,1.6-0.9c0.5-0.4,0.8-0.9,1.1-1.4l9.4-18.8c0.4-0.7,0.5-1.5,0.5-2.3C78.7,73.5,78.4,72.7,78,72z"/>
</svg>
