<?xml version="1.0" encoding="utf-8"?>
<!-- Generator: Adobe Illustrator 26.0.1, SVG Export Plug-In . SVG Version: 6.00 Build 0)  -->
<svg version="1.1" id="Слой_1" xmlns="http://www.w3.org/2000/svg" xmlns:xlink="http://www.w3.org/1999/xlink" x="0px" y="0px"
	 viewBox="0 0 1190.6 841.9" style="enable-background:new 0 0 1190.6 841.9;" xml:space="preserve">
<style type="text/css">
	.st0{fill:url(#SVGID_1_);}
</style>
<linearGradient id="SVGID_1_" gradientUnits="userSpaceOnUse" x1="7.4338" y1="840.6691" x2="12.611" y2="823.5477" gradientTransform="matrix(42.0945 0 0 -42.0945 174.3307 35438.9219)">
	<stop  offset="2.000000e-02" style="stop-color:#30EDF9"/>
	<stop  offset="1" style="stop-color:#94D8FF"/>
</linearGradient>
<path class="st0" d="M943.9,209.5v-16.6c0-36-10.7-71.1-30.7-101.1c-20-29.9-48.3-53.3-81.5-67.2C798.6,10.8,762,7,726.7,13.8
	c-35.3,6.8-67.8,23.9-93.5,49.1c-1.5,1.5-2.7,3.3-3.5,5.3c-0.8,2-1.2,4.1-1.2,6.3v368.2c0,3,0.8,5.9,2.4,8.5
	c1.5,2.6,3.7,4.7,6.4,6.1c2.6,1.4,5.6,2.1,8.6,2c3-0.1,5.9-1.1,8.4-2.7c31.6-20.2,68.2-31.1,105.7-31.3c8.7-0.2,17.1,3,23.5,8.9
	c6.4,5.9,10.3,13.9,11,22.6c0.2,4.5-0.4,9-2,13.2c-1.6,4.2-4,8.1-7.1,11.4c-3.1,3.3-6.8,5.9-11,7.6c-4.1,1.8-8.6,2.7-13.1,2.7
	c-35.2,0-69,14-93.9,38.9c-24.9,24.9-38.9,58.7-38.9,93.9v140.6c0,2.5,0.6,4.9,1.6,7.2c1.1,2.2,2.6,4.2,4.6,5.8
	c23.6,19.5,51.3,33.3,81.1,40.3c29.8,7,60.7,7.1,90.5,0.2c29.8-6.9,57.6-20.6,81.2-39.9c23.7-19.4,42.5-44,55.1-71.8
	c1.3-2.8,1.7-5.9,1.3-9c-0.4-3.1-1.6-5.9-3.5-8.3c-1.9-2.4-4.5-4.2-7.4-5.2c-2.9-1-6-1.2-9-0.6c-20.7,4.7-41.9,7.1-63.1,7.1h-32.1
	c-8.6,0.1-16.9-3-23.2-8.8c-6.4-5.7-10.3-13.7-11-22.2c-0.3-4.5,0.3-9.1,1.9-13.4c1.5-4.3,3.9-8.2,7-11.5c3.1-3.3,6.9-6,11.1-7.8
	c4.2-1.8,8.7-2.7,13.2-2.7H861c34.7,0.1,68.9-8.3,99.6-24.4c36.4-19,66.6-47.9,87.2-83.4c20.5-35.5,30.5-76.2,28.8-117.2
	c-1.8-41-15.2-80.7-38.6-114.3C1014.4,251.5,981.8,225.3,943.9,209.5z M894.1,358.9h-16.6c-39.6,0-77.6-15.7-105.6-43.8
	c-28-28-43.8-66-43.8-105.6v-16.6c0-8.8,3.5-17.3,9.7-23.5c6.2-6.2,14.7-9.7,23.5-9.7c8.8,0,17.2,3.5,23.5,9.7
	c6.2,6.2,9.7,14.7,9.7,23.5v16.6c0,10.9,2.1,21.7,6.3,31.8c4.2,10.1,10.3,19.2,18,26.9c15.6,15.6,36.7,24.3,58.7,24.3h16.6
	c8.8,0,17.2,3.5,23.5,9.7c6.2,6.2,9.7,14.7,9.7,23.5c0,8.8-3.5,17.3-9.7,23.5C911.3,355.4,902.9,358.9,894.1,358.9z M429.3,10.3
	c-48.4,0.1-94.8,19.3-129.1,53.5c-34.2,34.2-53.5,80.6-53.5,129.1v16.6c-37.9,15.8-70.5,42.1-93.9,75.7
	c-23.5,33.7-36.9,73.3-38.6,114.3c-1.7,41,8.2,81.6,28.8,117.2c20.5,35.5,50.8,64.5,87.2,83.4c30.7,16.1,64.9,24.5,99.6,24.4h32.1
	c8.6-0.1,16.9,3,23.3,8.8c6.4,5.7,10.3,13.7,11.1,22.2c0.3,4.5-0.3,9.1-1.9,13.4c-1.5,4.3-3.9,8.2-7,11.5c-3.1,3.3-6.9,6-11.1,7.8
	c-4.2,1.8-8.7,2.7-13.2,2.7h-33.2c-21.2,0-42.4-2.4-63.1-7.2c-3-0.7-6.1-0.5-9,0.6c-2.9,1-5.5,2.8-7.4,5.2c-1.9,2.4-3.2,5.3-3.6,8.3
	c-0.4,3,0.1,6.2,1.3,9c12.6,27.9,31.5,52.5,55.1,71.9c23.7,19.4,51.5,33.1,81.3,40c29.8,6.9,60.8,6.8,90.6-0.2
	c29.8-7,57.5-20.8,81.1-40.3c1.9-1.6,3.5-3.5,4.6-5.8c1.1-2.2,1.6-4.7,1.6-7.2V624.5c0-35.2-14-69-38.9-93.9
	c-24.9-24.9-58.7-38.9-93.9-38.9c-4.5,0-9-0.9-13.1-2.7c-4.1-1.8-7.9-4.4-11-7.6c-3.1-3.3-5.5-7.1-7.1-11.4c-1.6-4.2-2.2-8.7-2-13.2
	c0.6-8.7,4.6-16.8,11-22.6c6.4-5.8,14.8-9,23.5-8.8c37.5,0.2,74.2,11,105.7,31.3c2.5,1.6,5.4,2.6,8.4,2.7c3,0.1,6-0.5,8.6-2
	c2.6-1.4,4.8-3.5,6.4-6.1c1.5-2.6,2.4-5.5,2.4-8.5V74.6c0-4.4-1.7-8.5-4.7-11.7C523.2,29.2,477.2,10.3,429.3,10.3z M462.5,209.5
	c0,39.6-15.7,77.6-43.8,105.6c-28,28-66,43.8-105.6,43.8h-16.6c-8.8,0-17.3-3.5-23.5-9.7c-6.2-6.2-9.7-14.7-9.7-23.5
	c0-8.8,3.5-17.3,9.7-23.5c6.2-6.2,14.7-9.7,23.5-9.7h16.6c10.9,0,21.7-2.1,31.8-6.3c10.1-4.2,19.2-10.3,26.9-18
	c7.7-7.7,13.8-16.9,18-26.9c4.2-10.1,6.3-20.9,6.3-31.8v-16.6c0-8.8,3.5-17.3,9.7-23.5c6.2-6.2,14.7-9.7,23.5-9.7
	c8.8,0,17.3,3.5,23.5,9.7c6.2,6.2,9.7,14.7,9.7,23.5V209.5z"/>
</svg>
