<?xml version="1.0" encoding="utf-8"?>
<!-- Generator: Adobe Illustrator 26.0.1, SVG Export Plug-In . SVG Version: 6.00 Build 0)  -->
<svg version="1.1" id="Слой_1" xmlns="http://www.w3.org/2000/svg" xmlns:xlink="http://www.w3.org/1999/xlink" x="0px" y="0px"
	 viewBox="0 0 150 150" style="enable-background:new 0 0 150 150;" xml:space="preserve">
<style type="text/css">
	.st0{fill:url(#SVGID_1_);}
</style>
<path d="M139.6,54.6c0,41-60.8,74.2-63.4,75.6c-0.7,0.4-1.4,0.6-2.2,0.6s-1.5-0.2-2.2-0.6c-2.6-1.4-63.4-34.6-63.4-75.6
	c0-9.6,3.8-18.9,10.7-25.7s16-10.6,25.7-10.7c12.1,0,22.7,5.2,29.3,14c6.6-8.8,17.2-14,29.3-14c9.6,0,18.9,3.8,25.7,10.7
	C135.8,35.7,139.6,45,139.6,54.6z"/>
<linearGradient id="SVGID_1_" gradientUnits="userSpaceOnUse" x1="87.0324" y1="51.2441" x2="65.4372" y2="27.1048" gradientTransform="matrix(3.75 0 0 -3.75 -222.6378 216.5551)">
	<stop  offset="0" style="stop-color:#94FFDF"/>
	<stop  offset="1" style="stop-color:#64F930"/>
</linearGradient>
<path class="st0" d="M139.6,54.6c0,41-60.8,74.2-63.4,75.6c-0.7,0.4-1.4,0.6-2.2,0.6s-1.5-0.2-2.2-0.6c-2.6-1.4-63.4-34.6-63.4-75.6
	c0-9.6,3.8-18.9,10.7-25.7s16-10.6,25.7-10.7c12.1,0,22.7,5.2,29.3,14c6.6-8.8,17.2-14,29.3-14c9.6,0,18.9,3.8,25.7,10.7
	C135.8,35.7,139.6,45,139.6,54.6z"/>
</svg>
