<?xml version="1.0" encoding="utf-8"?>
<!-- Generator: Adobe Illustrator 26.0.1, SVG Export Plug-In . SVG Version: 6.00 Build 0)  -->
<svg version="1.1" id="Слой_1" xmlns="http://www.w3.org/2000/svg" xmlns:xlink="http://www.w3.org/1999/xlink" x="0px" y="0px"
	 viewBox="0 0 1190.6 841.9" style="enable-background:new 0 0 1190.6 841.9;" xml:space="preserve">
<style type="text/css">
	.st0{fill:#03383A;}
</style>
<path class="st0" d="M556.5,799.5c-2,8.2-6.7,15.3-13.3,20.6c-6.6,5.1-14.7,8-23.2,8c-3.1,0-6.3-0.4-9.4-1.1l-150.5-37.6
	c-4.1-1-8.2-2.9-11.7-5.1L235.6,709c-8.3-5.6-14-14.2-16-23.9c-2-9.7,0-19.9,5.6-28.3c5.6-8.3,14.2-14,23.9-16s19.9,0,28.3,5.6
	L384.7,718l144.2,36c4.9,1.1,9.3,3.3,13.3,6.2s7.4,6.6,10,10.9c2.6,4.3,4.3,9,5,13.9C558,789.8,557.7,794.8,556.5,799.5z
	 M1180.6,345.8c-3.1,9.4-8,18-14.4,25.5c-6.4,7.4-14.3,13.6-23.2,18l-111.4,55.6l-70.9,70.9L772.5,704.1c-4.6,4.6-10.3,7.9-16.6,9.6
	c-6.3,1.7-12.9,1.9-19.2,0.3l-301.1-75.2c-4.6-1.1-8.9-3.1-12.7-5.9l-261-186.5L47.7,389.3c-17.9-8.9-31.5-24.6-37.8-43.5
	c-6.3-18.9-4.9-39.6,4-57.5L130.8,54.6c8.9-17.9,24.6-31.5,43.5-37.8c18.9-6.3,39.6-4.9,57.5,4l103.7,51.8L584.9,1.5
	c6.7-2,13.9-2,20.7,0l249.3,71.2L958.6,21c17.9-8.9,38.5-10.4,57.5-4c18.9,6.3,34.6,19.9,43.5,37.8l116.9,233.7
	c4.4,8.9,7.2,18.5,7.9,28.3C1185,326.5,1183.8,336.5,1180.6,345.8z M877.5,492.4L747.2,388c-92,75.2-208.7,85.3-305.4,23.5
	c-9.6-6-17.6-14.2-23.5-23.7c-6-9.6-9.7-20.3-10.9-31.6c-1.3-11.2,0.1-22.6,3.9-33.2c3.7-10.6,9.9-20.3,17.7-28.3
	c0.1-0.1,0.3-0.3,0.4-0.4l211-204.7l-45.2-12.9l-237.2,67.8L229.4,401.9l231.4,165.4l273.5,68.4L877.5,492.4z M963.3,406.7
	l-127.9-256H685.7L482.3,348.2c59.5,38,152.9,48.5,236.7-35.9c6.6-6.6,15.3-10.6,24.6-11c9.3-0.6,18.5,2.4,25.6,8.2l161.9,129.7
	L963.3,406.7z"/>
</svg>
