<?xml version="1.0" encoding="utf-8"?>
<!-- Generator: Adobe Illustrator 26.0.1, SVG Export Plug-In . SVG Version: 6.00 Build 0)  -->
<svg version="1.1" id="Слой_1" xmlns="http://www.w3.org/2000/svg" xmlns:xlink="http://www.w3.org/1999/xlink" x="0px" y="0px"
	 viewBox="0 0 150 150" style="enable-background:new 0 0 150 150;" xml:space="preserve">
<style type="text/css">
	.st0{fill:url(#SVGID_1_);}
</style>
<path d="M57.6,23c0-3.2,1-6.4,2.8-9.1c1.8-2.7,4.4-4.8,7.4-6c3-1.2,6.3-1.6,9.5-0.9c3.2,0.6,6.1,2.2,8.4,4.5
	c2.3,2.3,3.9,5.2,4.5,8.4c0.6,3.2,0.3,6.5-0.9,9.5c-1.2,3-3.3,5.6-6,7.4c-2.7,1.8-5.9,2.8-9.1,2.8c-4.4,0-8.5-1.7-11.6-4.8
	C59.3,31.5,57.6,27.3,57.6,23z M132.3,56.1c-0.4-2.1-1.6-4-3.2-5.3c-1.7-1.3-3.8-2.1-5.9-2H24.8c-2.1,0-4.2,0.7-5.9,2.1
	c-1.7,1.3-2.8,3.2-3.3,5.3c-0.5,2.1-0.2,4.3,0.8,6.2c1,1.9,2.5,3.4,4.5,4.3h0l31.6,13.9l-12.8,48.8c-1,2.2-1,4.8-0.2,7.1
	c0.9,2.3,2.6,4.1,4.8,5.2c1.2,0.6,2.6,0.9,4,0.9c1.8,0,3.5-0.5,5-1.4c1.5-0.9,2.7-2.3,3.5-3.9L74,107.4l17.3,29.9
	c1.1,2.2,3,3.9,5.3,4.7c2.3,0.8,4.8,0.7,7.1-0.3c2.2-1,4-2.9,4.8-5.1c0.9-2.3,0.8-4.8-0.1-7.1L95.5,80.6l31.6-13.9
	c2-0.9,3.6-2.4,4.5-4.3C132.6,60.4,132.8,58.2,132.3,56.1z"/>
<linearGradient id="SVGID_1_" gradientUnits="userSpaceOnUse" x1="92.4935" y1="46.3816" x2="66.7042" y2="25.0815" gradientTransform="matrix(3.75 0 0 -3.75 -222.6378 216.5551)">
	<stop  offset="0" style="stop-color:#94FFDF"/>
	<stop  offset="1" style="stop-color:#64F930"/>
</linearGradient>
<path class="st0" d="M57.6,23c0-3.2,1-6.4,2.8-9.1c1.8-2.7,4.4-4.8,7.4-6c3-1.2,6.3-1.6,9.5-0.9c3.2,0.6,6.1,2.2,8.4,4.5
	c2.3,2.3,3.9,5.2,4.5,8.4c0.6,3.2,0.3,6.5-0.9,9.5c-1.2,3-3.3,5.6-6,7.4c-2.7,1.8-5.9,2.8-9.1,2.8c-4.4,0-8.5-1.7-11.6-4.8
	C59.3,31.5,57.6,27.3,57.6,23z M132.3,56.1c-0.4-2.1-1.6-4-3.2-5.3c-1.7-1.3-3.8-2.1-5.9-2H24.8c-2.1,0-4.2,0.7-5.9,2.1
	c-1.7,1.3-2.8,3.2-3.3,5.3c-0.5,2.1-0.2,4.3,0.8,6.2c1,1.9,2.5,3.4,4.5,4.3h0l31.6,13.9l-12.8,48.8c-1,2.2-1,4.8-0.2,7.1
	c0.9,2.3,2.6,4.1,4.8,5.2c1.2,0.6,2.6,0.9,4,0.9c1.8,0,3.5-0.5,5-1.4c1.5-0.9,2.7-2.3,3.5-3.9L74,107.4l17.3,29.9
	c1.1,2.2,3,3.9,5.3,4.7c2.3,0.8,4.8,0.7,7.1-0.3c2.2-1,4-2.9,4.8-5.1c0.9-2.3,0.8-4.8-0.1-7.1L95.5,80.6l31.6-13.9
	c2-0.9,3.6-2.4,4.5-4.3C132.6,60.4,132.8,58.2,132.3,56.1z"/>
</svg>
