<?xml version="1.0" encoding="utf-8"?>
<!-- Generator: Adobe Illustrator 26.0.1, SVG Export Plug-In . SVG Version: 6.00 Build 0)  -->
<svg version="1.1" id="Слой_1" xmlns="http://www.w3.org/2000/svg" xmlns:xlink="http://www.w3.org/1999/xlink" x="0px" y="0px"
	 viewBox="0 0 150 150" style="enable-background:new 0 0 150 150;" xml:space="preserve">
<style type="text/css">
	.st0{fill:url(#SVGID_1_);}
</style>
<path d="M135.2,76.9c0,15.2-5.7,29.9-16,41.2c-1.9,2.1-5.2-0.3-3.8-2.8c5.3-8.8,8.1-18.8,8.1-29c0-12.4-5-24.3-13.7-33.1
	c-8.8-8.8-20.7-13.7-33.1-13.7c-9.9,0-19.5,4-26.5,11c-7,7-11,16.6-11,26.5c0,7.5,3,14.6,8.2,19.9c5.3,5.3,12.4,8.2,19.9,8.2
	c5,0,9.7-2,13.3-5.5c3.5-3.5,5.5-8.3,5.5-13.3c0-0.2,0-0.3,0-0.5c-0.1-2.3-1.1-4.5-2.8-6.2C81.5,78,79.3,77,77,76.9
	c-1.2-0.1-2.5,0.3-3.4,1.1c-0.9,0.8-1.5,2-1.7,3.2c0,0.6,0,1.3,0.3,1.9c0.2,0.6,0.6,1.2,1,1.6c0.4,0.5,1,0.9,1.6,1.1
	c0.6,0.3,1.2,0.4,1.9,0.4c0,2.5-1,4.9-2.7,6.6c-1.8,1.8-4.1,2.7-6.6,2.7c-5,0-9.7-2-13.3-5.5c-3.5-3.5-5.5-8.3-5.5-13.3
	c0-7.5,3-14.6,8.2-19.9c5.3-5.3,12.4-8.2,19.9-8.2c9.9,0,19.5,4,26.5,11c7,7,11,16.6,11,26.5c0,12.4-5,24.3-13.7,33.1
	c-8.8,8.8-20.7,13.7-33.1,13.7c-43.5,0-54.4-40.2-53.9-57.9c0.9-32.5,27.5-58.8,60-59.3c8.1-0.1,16.1,1.4,23.6,4.4
	c7.5,3,14.3,7.5,20.1,13.1c5.8,5.7,10.3,12.4,13.5,19.9C133.5,60.8,135.1,68.8,135.2,76.9z"/>
<linearGradient id="SVGID_1_" gradientUnits="userSpaceOnUse" x1="90.1291" y1="48.1717" x2="67.4881" y2="25.6152" gradientTransform="matrix(3.75 0 0 -3.75 -222.6378 216.5551)">
	<stop  offset="0" style="stop-color:#94FFDF"/>
	<stop  offset="1" style="stop-color:#64F930"/>
</linearGradient>
<path class="st0" d="M135.2,76.9c0,15.2-5.7,29.9-16,41.2c-1.9,2.1-5.2-0.3-3.8-2.8c5.3-8.8,8.1-18.8,8.1-29
	c0-12.4-5-24.3-13.7-33.1c-8.8-8.8-20.7-13.7-33.1-13.7c-9.9,0-19.5,4-26.5,11c-7,7-11,16.6-11,26.5c0,7.5,3,14.6,8.2,19.9
	c5.3,5.3,12.4,8.2,19.9,8.2c5,0,9.7-2,13.3-5.5c3.5-3.5,5.5-8.3,5.5-13.3c0-0.2,0-0.3,0-0.5c-0.1-2.3-1.1-4.5-2.8-6.2
	C81.5,78,79.3,77,77,76.9c-1.2-0.1-2.5,0.3-3.4,1.1c-0.9,0.8-1.5,2-1.7,3.2c0,0.6,0,1.3,0.3,1.9c0.2,0.6,0.6,1.2,1,1.6
	c0.4,0.5,1,0.9,1.6,1.1c0.6,0.3,1.2,0.4,1.9,0.4c0,2.5-1,4.9-2.7,6.6c-1.8,1.8-4.1,2.7-6.6,2.7c-5,0-9.7-2-13.3-5.5
	c-3.5-3.5-5.5-8.3-5.5-13.3c0-7.5,3-14.6,8.2-19.9c5.3-5.3,12.4-8.2,19.9-8.2c9.9,0,19.5,4,26.5,11c7,7,11,16.6,11,26.5
	c0,12.4-5,24.3-13.7,33.1c-8.8,8.8-20.7,13.7-33.1,13.7c-43.5,0-54.4-40.2-53.9-57.9c0.9-32.5,27.5-58.8,60-59.3
	c8.1-0.1,16.1,1.4,23.6,4.4c7.5,3,14.3,7.5,20.1,13.1c5.8,5.7,10.3,12.4,13.5,19.9C133.5,60.8,135.1,68.8,135.2,76.9z"/>
</svg>
