<?xml version="1.0" encoding="utf-8"?>
<!-- Generator: Adobe Illustrator 26.0.1, SVG Export Plug-In . SVG Version: 6.00 Build 0)  -->
<svg version="1.1" id="Слой_1" xmlns="http://www.w3.org/2000/svg" xmlns:xlink="http://www.w3.org/1999/xlink" x="0px" y="0px"
	 viewBox="0 0 1190.6 841.9" style="enable-background:new 0 0 1190.6 841.9;" xml:space="preserve">
<style type="text/css">
	.st0{fill:url(#SVGID_1_);}
</style>
<linearGradient id="SVGID_1_" gradientUnits="userSpaceOnUse" x1="7.503" y1="840.6262" x2="12.4352" y2="823.4022" gradientTransform="matrix(42.0945 0 0 -42.0945 174.3307 35438.9219)">
	<stop  offset="2.000000e-02" style="stop-color:#30EDF9"/>
	<stop  offset="1" style="stop-color:#94D8FF"/>
</linearGradient>
<path class="st0" d="M997.5,368.6c2.2,17.2,3.3,34.4,3.3,51.7c0.1,75.8-21.1,150.1-61.1,214.4c-40,64.3-97.3,116.2-165.3,149.6
	c-68,33.4-144,47.1-219.4,39.5c-75.4-7.6-147.2-36.2-207.1-82.5c106.4-26,231.6-80,348.3-147C820.5,522.9,925.5,443.4,997.5,368.6z
	 M1090,135.9c-32.3-55.7-117.6-68.3-247.1-36.6c-60-46.4-131.7-75-207.1-82.6c-75.4-7.6-151.5,6.1-219.5,39.5
	s-125.3,85.3-165.4,149.6c-40,64.4-61.2,138.7-61.2,214.5c0,17.4,1.1,34.8,3.3,52c-117,121.2-115.3,193-92.4,232.4
	c21.5,37.3,66.5,53.6,125.6,53.6c41.1-0.8,81.9-6.5,121.6-16.9c-21.8-16.8-41.8-35.8-59.8-56.7c-73,12.2-118.3,4.2-129-13.9
	c-6.2-10.6-2.7-30.6,9.4-54.9c12-22.8,26.6-44.1,43.4-63.6c0-0.1,0-0.3,0-0.4v0.3c16.8,48.5,42.6,93.4,76,132.3
	c88.5-14.7,217.5-58.8,374.4-148.9c118.8-68.1,245.6-163.2,316.5-247.1c-16.7-48.6-42.5-93.5-76-132.4l-0.5-0.6
	c0,0.2,0.4,0.4,0.5,0.6c60-9.9,115.6-9.2,128.8,13.7c3.9,6.6,4.2,16.6,0.6,29.6c-7.1,26.7-26.2,57.2-53.4,89.3
	c8.9,26,15.2,52.7,18.7,80c52.8-54.9,88-107.1,99.9-151.7C1105.7,185.9,1103.2,158.7,1090,135.9z"/>
</svg>
