<?xml version="1.0" encoding="utf-8"?>
<!-- Generator: Adobe Illustrator 26.0.1, SVG Export Plug-In . SVG Version: 6.00 Build 0)  -->
<svg version="1.1" id="Слой_1" xmlns="http://www.w3.org/2000/svg" xmlns:xlink="http://www.w3.org/1999/xlink" x="0px" y="0px"
	 viewBox="0 0 1190.6 841.9" style="enable-background:new 0 0 1190.6 841.9;" xml:space="preserve">
<style type="text/css">
	.st0{fill:url(#SVGID_1_);}
</style>
<linearGradient id="SVGID_1_" gradientUnits="userSpaceOnUse" x1="6.9439" y1="840.5922" x2="12.9796" y2="823.7281" gradientTransform="matrix(42.0945 0 0 -42.0945 174.3307 35438.9219)">
	<stop  offset="2.000000e-02" style="stop-color:#30EDF9"/>
	<stop  offset="1" style="stop-color:#94D8FF"/>
</linearGradient>
<path class="st0" d="M567.7,110.4V27.6c0-7.3,2.9-14.3,8.1-19.5C580.9,2.9,588,0,595.3,0c7.3,0,14.3,2.9,19.5,8.1
	c5.2,5.2,8.1,12.2,8.1,19.5v82.8c0,7.3-2.9,14.3-8.1,19.5c-5.2,5.2-12.2,8.1-19.5,8.1c-7.3,0-14.3-2.9-19.5-8.1
	C570.6,124.8,567.7,117.7,567.7,110.4z M595.3,193.2c-43.7,0-86.4,13-122.7,37.2c-36.3,24.3-64.6,58.8-81.3,99.1
	c-16.7,40.4-21.1,84.8-12.6,127.6c8.5,42.8,29.6,82.2,60.4,113.1c30.9,30.9,70.2,51.9,113.1,60.4c42.8,8.5,87.2,4.1,127.6-12.6
	s74.8-45,99.1-81.3c24.3-36.3,37.2-79,37.2-122.7c-0.1-58.5-23.4-114.7-64.8-156.1C710,216.6,653.8,193.3,595.3,193.2z M354.9,212.8
	c5.2,5.2,12.2,8.1,19.5,8.1c7.3,0,14.4-2.9,19.5-8.1c5.2-5.2,8.1-12.2,8.1-19.5c0-7.3-2.9-14.4-8.1-19.5l-55.2-55.2
	c-5.2-5.2-12.2-8.1-19.5-8.1c-7.3,0-14.4,2.9-19.5,8.1c-5.2,5.2-8.1,12.2-8.1,19.5s2.9,14.4,8.1,19.5L354.9,212.8z M354.9,615.4
	l-55.2,55.2c-5.2,5.2-8.1,12.2-8.1,19.5c0,7.3,2.9,14.3,8.1,19.5c5.2,5.2,12.2,8.1,19.5,8.1c7.3,0,14.4-2.9,19.5-8.1l55.2-55.2
	c2.6-2.6,4.6-5.6,6-9c1.4-3.4,2.1-6.9,2.1-10.6s-0.7-7.2-2.1-10.6c-1.4-3.4-3.4-6.4-6-9c-2.6-2.6-5.6-4.6-9-6
	c-3.4-1.4-6.9-2.1-10.6-2.1c-3.6,0-7.2,0.7-10.6,2.1C360.5,610.8,357.5,612.8,354.9,615.4z M816.1,220.8c3.6,0,7.2-0.7,10.6-2.1
	c3.4-1.4,6.4-3.4,9-6l55.2-55.2c5.2-5.2,8.1-12.2,8.1-19.5s-2.9-14.4-8.1-19.5c-5.2-5.2-12.2-8.1-19.5-8.1c-7.3,0-14.3,2.9-19.5,8.1
	l-55.2,55.2c-3.9,3.9-6.5,8.8-7.6,14.1c-1.1,5.4-0.5,10.9,1.6,16c2.1,5,5.6,9.4,10.2,12.4C805.3,219.2,810.6,220.8,816.1,220.8z
	 M835.6,615.4c-5.2-5.2-12.2-8.1-19.5-8.1s-14.3,2.9-19.5,8.1c-5.2,5.2-8.1,12.2-8.1,19.5s2.9,14.3,8.1,19.5l55.2,55.2
	c2.6,2.6,5.6,4.6,9,6c3.4,1.4,6.9,2.1,10.6,2.1c3.6,0,7.2-0.7,10.6-2.1c3.4-1.4,6.4-3.4,9-6c2.6-2.6,4.6-5.6,6-9
	c1.4-3.4,2.1-6.9,2.1-10.6c0-3.6-0.7-7.2-2.1-10.6c-1.4-3.4-3.4-6.4-6-9L835.6,615.4z M319.2,414.1c0-7.3-2.9-14.3-8.1-19.5
	c-5.2-5.2-12.2-8.1-19.5-8.1h-82.8c-7.3,0-14.3,2.9-19.5,8.1c-5.2,5.2-8.1,12.2-8.1,19.5c0,7.3,2.9,14.3,8.1,19.5
	c5.2,5.2,12.2,8.1,19.5,8.1h82.8c7.3,0,14.3-2.9,19.5-8.1C316.3,428.4,319.2,421.4,319.2,414.1z M595.3,690.1
	c-7.3,0-14.3,2.9-19.5,8.1c-5.2,5.2-8.1,12.2-8.1,19.5v82.8c0,7.3,2.9,14.3,8.1,19.5c5.2,5.2,12.2,8.1,19.5,8.1
	c7.3,0,14.3-2.9,19.5-8.1c5.2-5.2,8.1-12.2,8.1-19.5v-82.8c0-7.3-2.9-14.3-8.1-19.5C609.6,693,602.6,690.1,595.3,690.1z
	 M981.7,386.5h-82.8c-7.3,0-14.3,2.9-19.5,8.1c-5.2,5.2-8.1,12.2-8.1,19.5c0,7.3,2.9,14.3,8.1,19.5c5.2,5.2,12.2,8.1,19.5,8.1h82.8
	c7.3,0,14.3-2.9,19.5-8.1c5.2-5.2,8.1-12.2,8.1-19.5c0-7.3-2.9-14.3-8.1-19.5C996.1,389.4,989.1,386.5,981.7,386.5z"/>
</svg>
