<?xml version="1.0" encoding="utf-8"?>
<!-- Generator: Adobe Illustrator 26.0.1, SVG Export Plug-In . SVG Version: 6.00 Build 0)  -->
<svg version="1.1" id="Слой_1" xmlns="http://www.w3.org/2000/svg" xmlns:xlink="http://www.w3.org/1999/xlink" x="0px" y="0px"
	 viewBox="0 0 1190.6 841.9" style="enable-background:new 0 0 1190.6 841.9;" xml:space="preserve">
<style type="text/css">
	.st0{fill:#03383A;}
</style>
<path class="st0" d="M956.1,206.1v-17.2c0-37.2-11.1-73.7-31.7-104.6s-50-55.1-84.4-69.5C805.6,0.4,767.7-3.5,731.3,3.5
	c-36.6,7.1-70.3,24.7-96.8,50.8c-1.6,1.6-2.9,3.4-3.7,5.5c-0.8,2.1-1.3,4.3-1.3,6.5v381.2c0,3.1,0.9,6.1,2.5,8.8
	c1.6,2.6,3.9,4.8,6.7,6.3c2.7,1.4,5.7,2.2,8.9,2.1s6.1-1.2,8.6-2.9c32.7-20.9,70.7-32.1,109.5-32.4c9-0.1,17.6,3.1,24.3,9.1
	c6.7,6,10.7,14.4,11.4,23.4c0.3,4.7-0.5,9.3-2.1,13.7c-1.6,4.4-4,8.4-7.3,11.8c-3.3,3.4-7.1,6.1-11.4,8c-4.3,1.8-8.9,2.7-13.6,2.7
	c-36.4,0-71.5,14.5-97.2,40.2c-25.7,25.7-40.2,60.7-40.2,97.2v145.5c0,2.6,0.5,5.1,1.7,7.4c1,2.4,2.7,4.3,4.7,6
	c24.4,20.2,53,34.5,83.9,41.8c30.8,7.3,62.8,7.3,93.7,0.3c30.8-7.2,59.6-21.3,84.1-41.4c24.6-20.1,44-45.5,57.1-74.3
	c1.3-2.9,1.8-6.1,1.4-9.3c-0.4-3.1-1.7-6.1-3.7-8.6c-2-2.5-4.7-4.3-7.7-5.4c-3-1-6.3-1.3-9.4-0.7c-21.4,5-43.4,7.4-65.3,7.4h-33.2
	c-8.9,0.1-17.5-3.1-24-9.1c-6.5-6-10.7-14.1-11.4-23c-0.3-4.7,0.4-9.4,2-13.8c1.6-4.4,4-8.5,7.3-11.9c3.3-3.4,7.1-6.1,11.5-8.1
	c4.3-1.8,9-2.9,13.7-2.9h34.4c35.9,0,71.3-8.6,103.1-25.2c37.6-19.6,69-49.6,90.3-86.4c21.3-36.8,31.6-78.9,29.8-121.4
	c-1.8-42.5-15.7-83.5-40-118.4C1029.1,249.6,995.3,222.5,956.1,206.1z M904.6,360.8h-17.2c-41,0-80.3-16.3-109.3-45.3
	c-29-29-45.3-68.3-45.3-109.3v-17.2c0-9.1,3.7-17.9,10.1-24.3c6.4-6.4,15.2-10.1,24.3-10.1c9.1,0,17.9,3.7,24.3,10.1
	c6.4,6.4,10.1,15.2,10.1,24.3v17.2c0,11.2,2.2,22.5,6.5,32.9s10.6,19.9,18.7,27.8c16.1,16.1,38,25.2,60.7,25.2h17.2
	c9.1,0,17.9,3.7,24.3,10.1c6.4,6.4,10.1,15.2,10.1,24.3c0,9.1-3.7,17.9-10.1,24.3C922.4,357.3,913.7,360.8,904.6,360.8z M423.4,0
	c-50.2,0-98.1,20-133.6,55.4c-35.4,35.4-55.4,83.5-55.4,133.6v17.2c-39.2,16.3-72.9,43.5-97.2,78.4c-24.3,34.7-38.1,75.8-40,118.2
	c-1.8,42.5,8.5,84.5,29.8,121.4s52.5,66.8,90.3,86.4c31.9,16.6,67.1,25.3,103.1,25.2h33.2c8.9-0.1,17.5,3.1,24,9
	c6.5,6,10.7,14.2,11.5,23c0.3,4.7-0.4,9.4-2,13.8c-1.6,4.4-4,8.5-7.3,11.9c-3.3,3.4-7.1,6.1-11.5,8.1c-4.3,1.8-9,2.9-13.7,2.9h-34.4
	c-21.9,0-43.9-2.5-65.3-7.4c-3.1-0.7-6.4-0.5-9.4,0.5c-3,1-5.6,2.9-7.7,5.4c-2,2.5-3.3,5.5-3.7,8.6c-0.4,3.1,0,6.4,1.3,9.3
	c13.1,28.9,32.5,54.3,57.1,74.3c24.4,20.1,53.3,34.2,84.1,41.4c30.8,7.2,63,7.1,93.8-0.3c30.8-7.3,59.6-21.6,84-41.8
	c2-1.6,3.7-3.7,4.7-6c1-2.4,1.7-4.8,1.7-7.4V635.8c0-36.4-14.5-71.5-40.2-97.2c-25.7-25.7-60.7-40.2-97.2-40.2
	c-4.7,0-9.3-0.9-13.6-2.7s-8.1-4.6-11.4-8s-5.7-7.4-7.3-11.8c-1.6-4.3-2.4-9-2.1-13.7c0.7-9,4.7-17.4,11.4-23.4
	c6.7-6,15.4-9.3,24.3-9.1c38.8,0.3,76.8,11.5,109.5,32.4c2.6,1.7,5.6,2.6,8.6,2.9c3.1,0.1,6.1-0.5,8.9-2.1c2.7-1.4,5-3.7,6.7-6.3
	c1.6-2.6,2.5-5.7,2.5-8.8V66.5c0-4.6-1.7-8.9-4.8-12C520.7,19.6,473,0,423.4,0z M457.7,206.1c0,41-16.3,80.3-45.3,109.3
	c-29,29-68.3,45.3-109.3,45.3h-17.2c-9.1,0-17.9-3.7-24.3-10.1c-6.4-6.4-10.1-15.2-10.1-24.3c0-9.1,3.7-17.9,10.1-24.3
	c6.4-6.4,15.2-10.1,24.3-10.1h17.2c11.2,0,22.5-2.2,32.9-6.5s19.9-10.6,27.8-18.7c8-8,14.4-17.5,18.7-27.8
	c4.3-10.5,6.5-21.6,6.5-32.9v-17.2c0-9.1,3.7-17.9,10.1-24.3c6.4-6.4,15.2-10.1,24.3-10.1s17.9,3.7,24.3,10.1s10.1,15.2,10.1,24.3
	V206.1z"/>
</svg>
