<?xml version="1.0" encoding="utf-8"?>
<!-- Generator: Adobe Illustrator 26.0.1, SVG Export Plug-In . SVG Version: 6.00 Build 0)  -->
<svg version="1.1" id="Слой_1" xmlns="http://www.w3.org/2000/svg" xmlns:xlink="http://www.w3.org/1999/xlink" x="0px" y="0px"
	 viewBox="0 0 150 150" style="enable-background:new 0 0 150 150;" xml:space="preserve">
<style type="text/css">
	.st0{fill:url(#SVGID_1_);}
</style>
<path d="M74.6,13c-12.1,0-23.8,3.6-33.9,10.3c-10,6.7-17.8,16.2-22.4,27.3c-4.6,11.1-5.8,23.4-3.5,35.2c2.4,11.8,8.2,22.7,16.7,31.2
	c8.5,8.5,19.4,14.3,31.2,16.7c11.8,2.4,24.1,1.1,35.2-3.5c11.1-4.6,20.7-12.4,27.3-22.4c6.7-10,10.3-21.8,10.3-33.9
	c0-16.2-6.4-31.6-17.9-43.1C106.2,19.4,90.7,13,74.6,13z M53.5,55.2c1.4,0,2.8,0.4,3.9,1.2s2.1,1.9,2.6,3.2s0.7,2.7,0.4,4.1
	c-0.3,1.4-0.9,2.6-1.9,3.6c-1,1-2.2,1.7-3.6,1.9c-1.4,0.3-2.8,0.1-4.1-0.4s-2.4-1.4-3.2-2.6c-0.8-1.2-1.2-2.5-1.2-3.9
	c0-1.9,0.7-3.7,2.1-5C49.8,55.9,51.6,55.2,53.5,55.2z M102.1,90.3c-6,10.4-16,16.4-27.5,16.4s-21.5-6-27.5-16.4
	c-0.3-0.5-0.6-1.1-0.7-1.8c-0.1-0.6-0.1-1.3,0.1-1.9c0.2-0.6,0.4-1.2,0.8-1.7c0.4-0.5,0.9-0.9,1.4-1.2c0.5-0.3,1.2-0.5,1.8-0.6
	c0.6-0.1,1.3,0,1.9,0.2c0.6,0.2,1.2,0.5,1.7,0.9c0.5,0.4,0.9,0.9,1.2,1.5c4.4,7.6,11.3,11.7,19.4,11.7s15-4.2,19.4-11.7
	c0.3-0.6,0.7-1.1,1.2-1.5c0.5-0.4,1.1-0.7,1.7-0.9c0.6-0.2,1.2-0.2,1.9-0.2c0.6,0.1,1.2,0.3,1.8,0.6c0.5,0.3,1,0.7,1.4,1.2
	c0.4,0.5,0.7,1.1,0.8,1.7c0.2,0.6,0.2,1.3,0.1,1.9C102.6,89.2,102.4,89.8,102.1,90.3z M95.7,69.2c-1.4,0-2.7-0.4-3.9-1.2
	c-1.2-0.8-2.1-1.9-2.6-3.2c-0.5-1.3-0.7-2.7-0.4-4.1c0.3-1.4,0.9-2.6,1.9-3.6s2.2-1.7,3.6-1.9c1.4-0.3,2.8-0.1,4.1,0.4
	c1.3,0.5,2.4,1.4,3.2,2.6c0.8,1.2,1.2,2.5,1.2,3.9c0,1.9-0.7,3.7-2.1,5C99.3,68.5,97.5,69.2,95.7,69.2z"/>
<linearGradient id="SVGID_1_" gradientUnits="userSpaceOnUse" x1="90.3335" y1="48.6453" x2="66.8097" y2="26.1119" gradientTransform="matrix(3.75 0 0 -3.75 -222.6378 216.5551)">
	<stop  offset="0" style="stop-color:#94FFDF"/>
	<stop  offset="1" style="stop-color:#64F930"/>
</linearGradient>
<path class="st0" d="M74.6,13c-12.1,0-23.8,3.6-33.9,10.3c-10,6.7-17.8,16.2-22.4,27.3c-4.6,11.1-5.8,23.4-3.5,35.2
	c2.4,11.8,8.2,22.7,16.7,31.2c8.5,8.5,19.4,14.3,31.2,16.7c11.8,2.4,24.1,1.1,35.2-3.5c11.1-4.6,20.7-12.4,27.3-22.4
	c6.7-10,10.3-21.8,10.3-33.9c0-16.2-6.4-31.6-17.9-43.1C106.2,19.4,90.7,13,74.6,13z M53.5,55.2c1.4,0,2.8,0.4,3.9,1.2
	s2.1,1.9,2.6,3.2s0.7,2.7,0.4,4.1c-0.3,1.4-0.9,2.6-1.9,3.6c-1,1-2.2,1.7-3.6,1.9c-1.4,0.3-2.8,0.1-4.1-0.4s-2.4-1.4-3.2-2.6
	c-0.8-1.2-1.2-2.5-1.2-3.9c0-1.9,0.7-3.7,2.1-5C49.8,55.9,51.6,55.2,53.5,55.2z M102.1,90.3c-6,10.4-16,16.4-27.5,16.4
	s-21.5-6-27.5-16.4c-0.3-0.5-0.6-1.1-0.7-1.8c-0.1-0.6-0.1-1.3,0.1-1.9c0.2-0.6,0.4-1.2,0.8-1.7c0.4-0.5,0.9-0.9,1.4-1.2
	c0.5-0.3,1.2-0.5,1.8-0.6c0.6-0.1,1.3,0,1.9,0.2c0.6,0.2,1.2,0.5,1.7,0.9c0.5,0.4,0.9,0.9,1.2,1.5c4.4,7.6,11.3,11.7,19.4,11.7
	s15-4.2,19.4-11.7c0.3-0.6,0.7-1.1,1.2-1.5c0.5-0.4,1.1-0.7,1.7-0.9c0.6-0.2,1.2-0.2,1.9-0.2c0.6,0.1,1.2,0.3,1.8,0.6
	c0.5,0.3,1,0.7,1.4,1.2c0.4,0.5,0.7,1.1,0.8,1.7c0.2,0.6,0.2,1.3,0.1,1.9C102.6,89.2,102.4,89.8,102.1,90.3z M95.7,69.2
	c-1.4,0-2.7-0.4-3.9-1.2c-1.2-0.8-2.1-1.9-2.6-3.2c-0.5-1.3-0.7-2.7-0.4-4.1c0.3-1.4,0.9-2.6,1.9-3.6s2.2-1.7,3.6-1.9
	c1.4-0.3,2.8-0.1,4.1,0.4c1.3,0.5,2.4,1.4,3.2,2.6c0.8,1.2,1.2,2.5,1.2,3.9c0,1.9-0.7,3.7-2.1,5C99.3,68.5,97.5,69.2,95.7,69.2z"/>
</svg>
