<?xml version="1.0" encoding="utf-8"?>
<!-- Generator: Adobe Illustrator 26.0.1, SVG Export Plug-In . SVG Version: 6.00 Build 0)  -->
<svg version="1.1" id="Слой_1" xmlns="http://www.w3.org/2000/svg" xmlns:xlink="http://www.w3.org/1999/xlink" x="0px" y="0px"
	 viewBox="0 0 150 150" style="enable-background:new 0 0 150 150;" xml:space="preserve">
<style type="text/css">
	.st0{fill:url(#SVGID_1_);}
</style>
<path d="M139.6,74.5c0,1.9-0.6,3.8-1.7,5.4c-1.1,1.6-2.7,2.8-4.5,3.4L96.3,96.8L82.8,134c-0.7,1.8-1.9,3.3-3.4,4.4
	c-1.6,1.1-3.4,1.7-5.4,1.7c-1.9,0-3.8-0.6-5.4-1.7s-2.8-2.6-3.4-4.4L51.7,96.8L14.5,83.3c-1.8-0.7-3.3-1.9-4.4-3.4
	c-1.1-1.6-1.7-3.4-1.7-5.4c0-1.9,0.6-3.8,1.7-5.4c1.1-1.6,2.6-2.8,4.4-3.4l37.2-13.5L65.2,15c0.7-1.8,1.9-3.3,3.4-4.4
	c1.6-1.1,3.4-1.7,5.4-1.7c1.9,0,3.8,0.6,5.4,1.7c1.6,1.1,2.8,2.6,3.4,4.4l13.5,37.2l37.2,13.5c1.8,0.6,3.4,1.8,4.5,3.4
	C139,70.7,139.6,72.6,139.6,74.5z"/>
<linearGradient id="SVGID_1_" gradientUnits="userSpaceOnUse" x1="91.0163" y1="49.3031" x2="65.698" y2="25.0435" gradientTransform="matrix(3.75 0 0 -3.75 -222.6378 216.5551)">
	<stop  offset="0" style="stop-color:#94FFDF"/>
	<stop  offset="1" style="stop-color:#64F930"/>
</linearGradient>
<path class="st0" d="M139.6,74.5c0,1.9-0.6,3.8-1.7,5.4c-1.1,1.6-2.7,2.8-4.5,3.4L96.3,96.8L82.8,134c-0.7,1.8-1.9,3.3-3.4,4.4
	c-1.6,1.1-3.4,1.7-5.4,1.7c-1.9,0-3.8-0.6-5.4-1.7s-2.8-2.6-3.4-4.4L51.7,96.8L14.5,83.3c-1.8-0.7-3.3-1.9-4.4-3.4
	c-1.1-1.6-1.7-3.4-1.7-5.4c0-1.9,0.6-3.8,1.7-5.4c1.1-1.6,2.6-2.8,4.4-3.4l37.2-13.5L65.2,15c0.7-1.8,1.9-3.3,3.4-4.4
	c1.6-1.1,3.4-1.7,5.4-1.7c1.9,0,3.8,0.6,5.4,1.7c1.6,1.1,2.8,2.6,3.4,4.4l13.5,37.2l37.2,13.5c1.8,0.6,3.4,1.8,4.5,3.4
	C139,70.7,139.6,72.6,139.6,74.5z"/>
</svg>
