<?xml version="1.0" encoding="utf-8"?>
<!-- Generator: Adobe Illustrator 26.0.1, SVG Export Plug-In . SVG Version: 6.00 Build 0)  -->
<svg version="1.1" id="Слой_1" xmlns="http://www.w3.org/2000/svg" xmlns:xlink="http://www.w3.org/1999/xlink" x="0px" y="0px"
	 viewBox="0 0 150 150" style="enable-background:new 0 0 150 150;" xml:space="preserve">
<style type="text/css">
	.st0{fill:#020203;}
	.st1{fill:url(#SVGID_1_);}
</style>
<g>
	<path class="st0" d="M148,99.3c0,1.3-0.5,2.5-1.4,3.4c-0.9,0.9-2.2,1.4-3.4,1.4H6.8c-1.3,0-2.5-0.5-3.4-1.4
		c-0.9-0.9-1.4-2.2-1.4-3.4c0-1.3,0.5-2.5,1.4-3.4c0.9-0.9,2.2-1.4,3.4-1.4h24.6c-0.2-1.6-0.3-3.2-0.3-4.9c0-11.6,4.6-22.8,12.8-31
		c8.2-8.2,19.4-12.8,31-12.8s22.8,4.6,31,12.8c8.2,8.2,12.8,19.4,12.8,31c0,1.6-0.1,3.3-0.3,4.9h24.6c1.3,0,2.5,0.5,3.4,1.4
		C147.5,96.8,148,98.1,148,99.3z M123.7,118.8H26.3c-1.3,0-2.5,0.5-3.4,1.4c-0.9,0.9-1.4,2.2-1.4,3.4c0,1.3,0.5,2.5,1.4,3.4
		c0.9,0.9,2.2,1.4,3.4,1.4h97.4c1.3,0,2.5-0.5,3.4-1.4c0.9-0.9,1.4-2.2,1.4-3.4c0-1.3-0.5-2.5-1.4-3.4
		C126.2,119.3,125,118.8,123.7,118.8z M46.3,38.2c0.3,0.6,0.7,1.1,1.2,1.5s1,0.7,1.7,0.9c0.6,0.2,1.2,0.3,1.9,0.2
		c0.6,0,1.3-0.2,1.8-0.5c0.6-0.3,1.1-0.7,1.5-1.2c0.4-0.5,0.7-1,0.9-1.7c0.2-0.6,0.3-1.2,0.2-1.9c0-0.6-0.2-1.3-0.5-1.8l-4.9-9.7
		c-0.6-1.2-1.6-2-2.8-2.4c-1.2-0.4-2.6-0.3-3.7,0.3c-1.2,0.6-2,1.6-2.4,2.8s-0.3,2.6,0.3,3.7L46.3,38.2z M9.5,64.8l9.7,4.9
		c1.2,0.6,2.5,0.7,3.7,0.3c1.2-0.4,2.2-1.3,2.8-2.4c0.6-1.2,0.7-2.5,0.3-3.7c-0.4-1.2-1.3-2.2-2.4-2.8L13.9,56
		c-0.6-0.3-1.2-0.5-1.8-0.5c-0.6,0-1.3,0-1.9,0.2C9.6,56,9,56.3,8.5,56.7c-0.5,0.4-0.9,0.9-1.2,1.5c-0.3,0.6-0.5,1.2-0.5,1.8
		c0,0.6,0,1.3,0.2,1.9c0.2,0.6,0.5,1.2,0.9,1.7C8.5,64.1,9,64.5,9.5,64.8z M128.5,70.1c0.8,0,1.5-0.2,2.2-0.5l9.7-4.9
		c0.6-0.3,1.1-0.7,1.5-1.2c0.4-0.5,0.7-1,0.9-1.7c0.2-0.6,0.3-1.2,0.2-1.9c0-0.6-0.2-1.3-0.5-1.8c-0.3-0.6-0.7-1.1-1.2-1.5
		c-0.5-0.4-1-0.7-1.7-0.9c-0.6-0.2-1.2-0.3-1.9-0.2c-0.6,0-1.3,0.2-1.8,0.5l-9.7,4.9c-1,0.5-1.8,1.3-2.2,2.3c-0.5,1-0.6,2.1-0.3,3.2
		c0.3,1.1,0.9,2,1.7,2.7C126.4,69.8,127.5,70.1,128.5,70.1z M97.2,40.4c0.6,0.3,1.2,0.5,1.8,0.5c0.6,0,1.3,0,1.9-0.2
		c0.6-0.2,1.2-0.5,1.7-0.9c0.5-0.4,0.9-0.9,1.2-1.5l4.9-9.7c0.6-1.2,0.7-2.5,0.3-3.7c-0.4-1.2-1.3-2.2-2.4-2.8
		c-1.2-0.6-2.5-0.7-3.7-0.3c-1.2,0.4-2.2,1.3-2.8,2.4L95,33.9c-0.3,0.6-0.5,1.2-0.5,1.8c0,0.6,0,1.3,0.2,1.9
		c0.2,0.6,0.5,1.2,0.9,1.7C96.1,39.7,96.6,40.1,97.2,40.4z"/>
	
		<linearGradient id="SVGID_1_" gradientUnits="userSpaceOnUse" x1="391.7805" y1="-280.8674" x2="316.8773" y2="-378.7048" gradientTransform="matrix(1 0 0 -1 -277.6378 -248.9449)">
		<stop  offset="0" style="stop-color:#A4D5CA"/>
		<stop  offset="1" style="stop-color:#7FBA28"/>
	</linearGradient>
	<path class="st1" d="M148,99.3c0,1.3-0.5,2.5-1.4,3.4c-0.9,0.9-2.2,1.4-3.4,1.4H6.8c-1.3,0-2.5-0.5-3.4-1.4
		c-0.9-0.9-1.4-2.2-1.4-3.4c0-1.3,0.5-2.5,1.4-3.4c0.9-0.9,2.2-1.4,3.4-1.4h24.6c-0.2-1.6-0.3-3.2-0.3-4.9c0-11.6,4.6-22.8,12.8-31
		c8.2-8.2,19.4-12.8,31-12.8s22.8,4.6,31,12.8c8.2,8.2,12.8,19.4,12.8,31c0,1.6-0.1,3.3-0.3,4.9h24.6c1.3,0,2.5,0.5,3.4,1.4
		C147.5,96.8,148,98.1,148,99.3z M123.7,118.8H26.3c-1.3,0-2.5,0.5-3.4,1.4c-0.9,0.9-1.4,2.2-1.4,3.4c0,1.3,0.5,2.5,1.4,3.4
		c0.9,0.9,2.2,1.4,3.4,1.4h97.4c1.3,0,2.5-0.5,3.4-1.4c0.9-0.9,1.4-2.2,1.4-3.4c0-1.3-0.5-2.5-1.4-3.4
		C126.2,119.3,125,118.8,123.7,118.8z M46.3,38.2c0.3,0.6,0.7,1.1,1.2,1.5s1,0.7,1.7,0.9c0.6,0.2,1.2,0.3,1.9,0.2
		c0.6,0,1.3-0.2,1.8-0.5c0.6-0.3,1.1-0.7,1.5-1.2c0.4-0.5,0.7-1,0.9-1.7c0.2-0.6,0.3-1.2,0.2-1.9c0-0.6-0.2-1.3-0.5-1.8l-4.9-9.7
		c-0.6-1.2-1.6-2-2.8-2.4c-1.2-0.4-2.6-0.3-3.7,0.3c-1.2,0.6-2,1.6-2.4,2.8s-0.3,2.6,0.3,3.7L46.3,38.2z M9.5,64.8l9.7,4.9
		c1.2,0.6,2.5,0.7,3.7,0.3c1.2-0.4,2.2-1.3,2.8-2.4c0.6-1.2,0.7-2.5,0.3-3.7c-0.4-1.2-1.3-2.2-2.4-2.8L13.9,56
		c-0.6-0.3-1.2-0.5-1.8-0.5c-0.6,0-1.3,0-1.9,0.2C9.6,56,9,56.3,8.5,56.7c-0.5,0.4-0.9,0.9-1.2,1.5c-0.3,0.6-0.5,1.2-0.5,1.8
		c0,0.6,0,1.3,0.2,1.9c0.2,0.6,0.5,1.2,0.9,1.7C8.5,64.1,9,64.5,9.5,64.8z M128.5,70.1c0.8,0,1.5-0.2,2.2-0.5l9.7-4.9
		c0.6-0.3,1.1-0.7,1.5-1.2c0.4-0.5,0.7-1,0.9-1.7c0.2-0.6,0.3-1.2,0.2-1.9c0-0.6-0.2-1.3-0.5-1.8c-0.3-0.6-0.7-1.1-1.2-1.5
		c-0.5-0.4-1-0.7-1.7-0.9c-0.6-0.2-1.2-0.3-1.9-0.2c-0.6,0-1.3,0.2-1.8,0.5l-9.7,4.9c-1,0.5-1.8,1.3-2.2,2.3c-0.5,1-0.6,2.1-0.3,3.2
		c0.3,1.1,0.9,2,1.7,2.7C126.4,69.8,127.5,70.1,128.5,70.1z M97.2,40.4c0.6,0.3,1.2,0.5,1.8,0.5c0.6,0,1.3,0,1.9-0.2
		c0.6-0.2,1.2-0.5,1.7-0.9c0.5-0.4,0.9-0.9,1.2-1.5l4.9-9.7c0.6-1.2,0.7-2.5,0.3-3.7c-0.4-1.2-1.3-2.2-2.4-2.8
		c-1.2-0.6-2.5-0.7-3.7-0.3c-1.2,0.4-2.2,1.3-2.8,2.4L95,33.9c-0.3,0.6-0.5,1.2-0.5,1.8c0,0.6,0,1.3,0.2,1.9
		c0.2,0.6,0.5,1.2,0.9,1.7C96.1,39.7,96.6,40.1,97.2,40.4z"/>
</g>
</svg>
