<?xml version="1.0" encoding="utf-8"?>
<!-- Generator: Adobe Illustrator 26.0.1, SVG Export Plug-In . SVG Version: 6.00 Build 0)  -->
<svg version="1.1" id="Слой_1" xmlns="http://www.w3.org/2000/svg" xmlns:xlink="http://www.w3.org/1999/xlink" x="0px" y="0px"
	 viewBox="0 0 1190.6 841.9" style="enable-background:new 0 0 1190.6 841.9;" xml:space="preserve">
<style type="text/css">
	.st0{fill:#03383A;}
</style>
<path class="st0" d="M595.2,64.8C437.9,64.9,287,127.5,175.7,238.8S1.8,501.1,1.6,658.4v79.1c0,10.5,4.2,20.6,11.6,28
	s17.5,11.6,28,11.6h1108.2c10.5,0,20.6-4.2,28-11.6c7.4-7.4,11.6-17.5,11.6-28v-79.1c-0.2-157.4-62.7-308.2-174.1-419.6
	C903.5,127.5,752.6,64.9,595.2,64.8z M753.5,698c-10.5,0-20.6-4.2-28-11.6c-7.4-7.4-11.6-17.5-11.6-28c0-31.4-12.5-61.7-34.8-83.9
	c-22.3-22.3-52.5-34.8-83.9-34.8s-61.7,12.5-83.9,34.8c-22.3,22.3-34.8,52.5-34.8,83.9c0,10.5-4.2,20.6-11.6,28S447.5,698,437,698
	c-10.5,0-20.6-4.2-28-11.6c-7.4-7.4-11.6-17.5-11.6-28c0-52.5,20.9-102.7,57.9-139.9c37.2-37.2,87.4-57.9,139.9-57.9
	s102.7,20.9,139.9,57.9c37.2,37.2,57.9,87.4,57.9,139.9c0,10.5-4.2,20.6-11.6,28C774.1,693.8,764,698,753.5,698z M911.7,698
	c-10.5,0-20.6-4.2-28-11.6c-7.4-7.4-11.6-17.5-11.6-28c0-73.4-29.2-144-81.1-195.9c-51.9-51.9-122.5-81.1-195.9-81.1
	s-144,29.2-195.9,81.1S318.3,585,318.3,658.4c0,10.5-4.2,20.6-11.6,28s-17.5,11.6-28,11.6c-10.5,0-20.6-4.2-28-11.6
	c-7.4-7.4-11.6-17.5-11.6-28c0-94.5,37.5-185,104.4-251.8c66.8-66.8,157.4-104.4,251.8-104.4s185,37.5,251.8,104.4
	c66.8,66.8,104.4,157.4,104.4,251.8c0,10.5-4.2,20.6-11.6,28C932.6,693.8,922.3,698,911.7,698z M1070.1,698
	c-10.5,0-20.6-4.2-28-11.6c-7.4-7.4-11.6-17.5-11.6-28c0-115.5-45.9-226.3-127.6-307.8c-81.7-81.7-192.4-127.6-307.8-127.6
	S369,268.9,287.4,350.6C205.8,432.3,159.9,543,159.9,658.4c0,10.5-4.2,20.6-11.6,28c-7.4,7.4-17.5,11.6-28,11.6s-20.6-4.2-28-11.6
	c-7.4-7.4-11.6-17.5-11.6-28c0-136.4,54.2-267.3,150.7-363.7c96.4-96.4,227.3-150.7,363.7-150.7S862.5,198.1,959,294.7
	s150.7,227.3,150.7,363.7c0,10.5-4.2,20.6-11.6,28C1090.8,693.8,1080.7,698,1070.1,698z"/>
</svg>
