<?xml version="1.0" encoding="utf-8"?>
<!-- Generator: Adobe Illustrator 26.0.1, SVG Export Plug-In . SVG Version: 6.00 Build 0)  -->
<svg version="1.1" id="Слой_1" xmlns="http://www.w3.org/2000/svg" xmlns:xlink="http://www.w3.org/1999/xlink" x="0px" y="0px"
	 viewBox="0 0 150 150" style="enable-background:new 0 0 150 150;" xml:space="preserve">
<style type="text/css">
	.st0{fill:#23600E;}
	.st1{fill:url(#SVGID_1_);}
	.st2{fill:#0E0F1D;}
	.st3{fill:url(#SVGID_00000113349452228470529490000010745975524911482524_);}
</style>
<path class="st0" d="M74,109.6C74,109.6,74,109.6,74,109.6c-1.5,1-3.1,1.9-4.7,2.7v23.2c0,1.2,0.5,2.4,1.4,3.3
	c0.9,0.9,2.1,1.4,3.3,1.4s2.4-0.5,3.3-1.4c0.9-0.9,1.4-2.1,1.4-3.3v-23.2C77,111.5,75.5,110.6,74,109.6L74,109.6z"/>
<linearGradient id="SVGID_1_" gradientUnits="userSpaceOnUse" x1="80.6046" y1="24.8678" x2="77.4109" y2="23.9286" gradientTransform="matrix(3.75 0 0 -3.75 -222.6378 216.5551)">
	<stop  offset="0" style="stop-color:#94FFDF"/>
	<stop  offset="1" style="stop-color:#64F930"/>
</linearGradient>
<path class="st1" d="M74,109.6C74,109.6,74,109.6,74,109.6c-1.5,1-3.1,1.9-4.7,2.7v23.2c0,1.2,0.5,2.4,1.4,3.3
	c0.9,0.9,2.1,1.4,3.3,1.4s2.4-0.5,3.3-1.4c0.9-0.9,1.4-2.1,1.4-3.3v-23.2C77,111.5,75.5,110.6,74,109.6L74,109.6z"/>
<path class="st2" d="M115.1,36.2c-3.4-8.1-9.1-15-16.4-19.9C91.4,11.5,82.8,8.9,74,8.9s-17.4,2.6-24.7,7.5
	c-7.3,4.9-13,11.8-16.4,19.9c-7.3,3.4-13.5,8.8-17.8,15.5c-4.3,6.8-6.7,14.6-6.7,22.7c-0.1,22.7,18.4,41.7,41.1,42.3
	c6.9,0.2,13.7-1.3,19.8-4.4V91.5L43.8,78.7c-1.1-0.6-2-1.5-2.4-2.7c-0.4-1.2-0.3-2.5,0.3-3.6c0.6-1.1,1.5-2,2.7-2.4
	c1.2-0.4,2.5-0.3,3.6,0.3L69.3,81V51.1c0-1.2,0.5-2.4,1.4-3.3c0.9-0.9,2.1-1.4,3.3-1.4c1.2,0,2.4,0.5,3.3,1.4
	c0.9,0.9,1.4,2.1,1.4,3.3v15.9L100,56.3c0.6-0.3,1.2-0.4,1.8-0.5c0.6,0,1.2,0,1.8,0.2c0.6,0.2,1.1,0.5,1.6,0.9
	c0.5,0.4,0.8,0.9,1.1,1.4c0.3,0.6,0.4,1.2,0.5,1.8c0,0.6,0,1.2-0.2,1.8c-0.2,0.6-0.5,1.1-0.9,1.6c-0.4,0.5-0.9,0.8-1.4,1.1
	L78.7,77.4v34.9c5.8,2.9,12.2,4.4,18.8,4.4h1.1c22.7-0.6,41.2-19.5,41.1-42.3c0-8-2.4-15.9-6.7-22.7C128.6,45,122.4,39.6,115.1,36.2
	z"/>
<linearGradient id="SVGID_00000080893327556759850890000005689060866314619025_" gradientUnits="userSpaceOnUse" x1="90.3365" y1="50.9837" x2="69.743" y2="26.9773" gradientTransform="matrix(3.75 0 0 -3.75 -222.6378 216.5551)">
	<stop  offset="0" style="stop-color:#94FFDF"/>
	<stop  offset="1" style="stop-color:#64F930"/>
</linearGradient>
<path style="fill:url(#SVGID_00000080893327556759850890000005689060866314619025_);" d="M115.1,36.2c-3.4-8.1-9.1-15-16.4-19.9
	C91.4,11.5,82.8,8.9,74,8.9s-17.4,2.6-24.7,7.5c-7.3,4.9-13,11.8-16.4,19.9c-7.3,3.4-13.5,8.8-17.8,15.5c-4.3,6.8-6.7,14.6-6.7,22.7
	c-0.1,22.7,18.4,41.7,41.1,42.3c6.9,0.2,13.7-1.3,19.8-4.4V91.5L43.8,78.7c-1.1-0.6-2-1.5-2.4-2.7c-0.4-1.2-0.3-2.5,0.3-3.6
	c0.6-1.1,1.5-2,2.7-2.4c1.2-0.4,2.5-0.3,3.6,0.3L69.3,81V51.1c0-1.2,0.5-2.4,1.4-3.3c0.9-0.9,2.1-1.4,3.3-1.4c1.2,0,2.4,0.5,3.3,1.4
	c0.9,0.9,1.4,2.1,1.4,3.3v15.9L100,56.3c0.6-0.3,1.2-0.4,1.8-0.5c0.6,0,1.2,0,1.8,0.2c0.6,0.2,1.1,0.5,1.6,0.9
	c0.5,0.4,0.8,0.9,1.1,1.4c0.3,0.6,0.4,1.2,0.5,1.8c0,0.6,0,1.2-0.2,1.8c-0.2,0.6-0.5,1.1-0.9,1.6c-0.4,0.5-0.9,0.8-1.4,1.1
	L78.7,77.4v34.9c5.8,2.9,12.2,4.4,18.8,4.4h1.1c22.7-0.6,41.2-19.5,41.1-42.3c0-8-2.4-15.9-6.7-22.7C128.6,45,122.4,39.6,115.1,36.2
	z"/>
</svg>
