<svg xmlns="http://www.w3.org/2000/svg" width="100%" height="100%" viewBox="0 0 54 54" fill="none" preserveAspectRatio="xMidYMid meet" aria-hidden="true" role="img">
              <g opacity="0.4">
                <path d="M27 39.6309C27 39.6309 27 39.6309 26.9873 39.6309C26.4464 39.9911 25.8827 40.3159 25.2998 40.6033V48.9374C25.2998 49.385 25.4776 49.8142 25.7941 50.1307C26.1105 50.4471 26.5398 50.6249 26.9873 50.6249C27.4349 50.6249 27.8641 50.4471 28.1805 50.1307C28.497 49.8142 28.6748 49.385 28.6748 48.9374V40.6033C28.0919 40.3159 27.5282 39.9911 26.9873 39.6309H27Z" fill="#23600E"></path>
                <path d="M27 39.6309C27 39.6309 27 39.6309 26.9873 39.6309C26.4464 39.9911 25.8827 40.3159 25.2998 40.6033V48.9374C25.2998 49.385 25.4776 49.8142 25.7941 50.1307C26.1105 50.4471 26.5398 50.6249 26.9873 50.6249C27.4349 50.6249 27.8641 50.4471 28.1805 50.1307C28.497 49.8142 28.6748 49.385 28.6748 48.9374V40.6033C28.0919 40.3159 27.5282 39.9911 26.9873 39.6309H27Z" fill="url(#paint0_linear_474_1633)"></path>
              </g>
              <path d="M41.7868 13.2049C40.5661 10.2903 38.5112 7.80138 35.8803 6.05098C33.2495 4.30057 30.16 3.3667 27.0001 3.3667C23.8401 3.3667 20.7506 4.30057 18.1198 6.05098C15.4889 7.80138 13.4341 10.2903 12.2133 13.2049C9.58656 14.4219 7.36049 16.3615 5.79537 18.7969C4.23026 21.2324 3.39077 24.0631 3.37506 26.958C3.35186 35.1466 9.99006 41.9768 18.1702 42.1877C20.6448 42.2523 23.0974 41.7083 25.3126 40.6036V33.1047L16.1199 28.5105C15.7193 28.3102 15.4148 27.959 15.2731 27.5342C15.1315 27.1093 15.1645 26.6456 15.3647 26.2451C15.565 25.8445 15.9162 25.5399 16.3411 25.3983C16.7659 25.2567 17.2297 25.2896 17.6302 25.4899L25.3126 29.3332V18.5627C25.3126 18.1152 25.4904 17.6859 25.8068 17.3695C26.1233 17.053 26.5525 16.8752 27.0001 16.8752C27.4476 16.8752 27.8768 17.053 28.1933 17.3695C28.5098 17.6859 28.6876 18.1152 28.6876 18.5627V24.2707L36.3699 20.4274C36.5682 20.3282 36.7842 20.2691 37.0054 20.2534C37.2265 20.2377 37.4487 20.2657 37.659 20.3358C37.8694 20.4059 38.0639 20.5168 38.2314 20.6621C38.3989 20.8074 38.5362 20.9842 38.6354 21.1826C38.7345 21.3809 38.7937 21.5968 38.8094 21.818C38.8251 22.0392 38.7971 22.2613 38.727 22.4717C38.6569 22.6821 38.546 22.8765 38.4007 23.0441C38.2554 23.2116 38.0786 23.3489 37.8802 23.448L28.6876 28.0422V40.6036C30.7839 41.649 33.095 42.1914 35.4376 42.1877H35.8299C44.0101 41.9768 50.6483 35.1508 50.6251 26.9622C50.6109 24.0664 49.7721 21.2345 48.2069 18.7981C46.6416 16.3617 44.4147 14.4216 41.7868 13.2049Z" fill="#0E0F1D"></path>
              <path d="M41.7868 13.2049C40.5661 10.2903 38.5112 7.80138 35.8803 6.05098C33.2495 4.30057 30.16 3.3667 27.0001 3.3667C23.8401 3.3667 20.7506 4.30057 18.1198 6.05098C15.4889 7.80138 13.4341 10.2903 12.2133 13.2049C9.58656 14.4219 7.36049 16.3615 5.79537 18.7969C4.23026 21.2324 3.39077 24.0631 3.37506 26.958C3.35186 35.1466 9.99006 41.9768 18.1702 42.1877C20.6448 42.2523 23.0974 41.7083 25.3126 40.6036V33.1047L16.1199 28.5105C15.7193 28.3102 15.4148 27.959 15.2731 27.5342C15.1315 27.1093 15.1645 26.6456 15.3647 26.2451C15.565 25.8445 15.9162 25.5399 16.3411 25.3983C16.7659 25.2567 17.2297 25.2896 17.6302 25.4899L25.3126 29.3332V18.5627C25.3126 18.1152 25.4904 17.6859 25.8068 17.3695C26.1233 17.053 26.5525 16.8752 27.0001 16.8752C27.4476 16.8752 27.8768 17.053 28.1933 17.3695C28.5098 17.6859 28.6876 18.1152 28.6876 18.5627V24.2707L36.3699 20.4274C36.5682 20.3282 36.7842 20.2691 37.0054 20.2534C37.2265 20.2377 37.4487 20.2657 37.659 20.3358C37.8694 20.4059 38.0639 20.5168 38.2314 20.6621C38.3989 20.8074 38.5362 20.9842 38.6354 21.1826C38.7345 21.3809 38.7937 21.5968 38.8094 21.818C38.8251 22.0392 38.7971 22.2613 38.727 22.4717C38.6569 22.6821 38.546 22.8765 38.4007 23.0441C38.2554 23.2116 38.0786 23.3489 37.8802 23.448L28.6876 28.0422V40.6036C30.7839 41.649 33.095 42.1914 35.4376 42.1877H35.8299C44.0101 41.9768 50.6483 35.1508 50.6251 26.9622C50.6109 24.0664 49.7721 21.2345 48.2069 18.7981C46.6416 16.3617 44.4147 14.4216 41.7868 13.2049Z" fill="url(#paint1_linear_474_1633)"></path>
              <defs>
                <linearGradient id="paint0_linear_474_1633" x1="28.6673" y1="39.6309" x2="25.3301" y2="39.7526" gradientUnits="userSpaceOnUse">
                  <stop stop-color="#88F8FF"></stop>
                  <stop offset="0.96" stop-color="#67C3EA"></stop>
                </linearGradient>
                <linearGradient id="paint1_linear_474_1633" x1="50.52" y1="3.3667" x2="4.69533" y2="9.99346" gradientUnits="userSpaceOnUse">
                  <stop stop-color="#88F8FF"></stop>
                  <stop offset="0.96" stop-color="#67C3EA"></stop>
                </linearGradient>
              </defs>
            </svg>