            <svg xmlns="http://www.w3.org/2000/svg" width="100%" height="100%" viewBox="0 0 55 54" fill="none" preserveAspectRatio="xMidYMid meet" aria-hidden="true" role="img">
              <path opacity="0.4" d="M27.6667 39.6309C27.6667 39.6309 27.6667 39.6309 27.6541 39.6309C27.1132 39.9911 26.5495 40.3159 25.9666 40.6033V48.9374C25.9666 49.385 26.1443 49.8142 26.4608 50.1307C26.7773 50.4471 27.2065 50.6249 27.6541 50.6249C28.1016 50.6249 28.5308 50.4471 28.8473 50.1307C29.1638 49.8142 29.3416 49.385 29.3416 48.9374V40.6033C28.7586 40.3159 28.195 39.9911 27.6541 39.6309H27.6667Z" fill="url(#paint0_linear_474_193)"></path>
              <path d="M42.4535 13.2049C41.2328 10.2903 39.1779 7.80138 36.5471 6.05098C33.9162 4.30057 30.8268 3.3667 27.6668 3.3667C24.5069 3.3667 21.4174 4.30057 18.7865 6.05098C16.1557 7.80138 14.1008 10.2903 12.8801 13.2049C10.2533 14.4219 8.02724 16.3615 6.46212 18.7969C4.89701 21.2324 4.05752 24.0631 4.04181 26.958C4.01861 35.1466 10.6568 41.9768 18.837 42.1877C21.3115 42.2523 23.7641 41.7083 25.9793 40.6036V33.1047L16.7867 28.5105C16.3861 28.3102 16.0815 27.959 15.9399 27.5342C15.7983 27.1093 15.8312 26.6456 16.0315 26.2451C16.2318 25.8445 16.583 25.5399 17.0078 25.3983C17.4327 25.2567 17.8964 25.2896 18.297 25.4899L25.9793 29.3332V18.5627C25.9793 18.1152 26.1571 17.6859 26.4736 17.3695C26.79 17.053 27.2193 16.8752 27.6668 16.8752C28.1144 16.8752 28.5436 17.053 28.8601 17.3695C29.1765 17.6859 29.3543 18.1152 29.3543 18.5627V24.2707L37.0367 20.4274C37.235 20.3282 37.4509 20.2691 37.6721 20.2534C37.8933 20.2377 38.1154 20.2657 38.3258 20.3358C38.5362 20.4059 38.7306 20.5168 38.8982 20.6621C39.0657 20.8074 39.203 20.9842 39.3021 21.1826C39.4013 21.3809 39.4604 21.5968 39.4761 21.818C39.4919 22.0392 39.4639 22.2613 39.3937 22.4717C39.3236 22.6821 39.2127 22.8765 39.0675 23.0441C38.9222 23.2116 38.7453 23.3489 38.547 23.448L29.3543 28.0422V40.6036C31.4506 41.649 33.7618 42.1914 36.1043 42.1877H36.4967C44.6768 41.9768 51.315 35.1508 51.2918 26.9622C51.2777 24.0664 50.4389 21.2345 48.8736 18.7981C47.3084 16.3617 45.0814 14.4216 42.4535 13.2049Z" fill="currentColor"></path>
              <path d="M42.4535 13.2049C41.2328 10.2903 39.1779 7.80138 36.5471 6.05098C33.9162 4.30057 30.8268 3.3667 27.6668 3.3667C24.5069 3.3667 21.4174 4.30057 18.7865 6.05098C16.1557 7.80138 14.1008 10.2903 12.8801 13.2049C10.2533 14.4219 8.02724 16.3615 6.46212 18.7969C4.89701 21.2324 4.05752 24.0631 4.04181 26.958C4.01861 35.1466 10.6568 41.9768 18.837 42.1877C21.3115 42.2523 23.7641 41.7083 25.9793 40.6036V33.1047L16.7867 28.5105C16.3861 28.3102 16.0815 27.959 15.9399 27.5342C15.7983 27.1093 15.8312 26.6456 16.0315 26.2451C16.2318 25.8445 16.583 25.5399 17.0078 25.3983C17.4327 25.2567 17.8964 25.2896 18.297 25.4899L25.9793 29.3332V18.5627C25.9793 18.1152 26.1571 17.6859 26.4736 17.3695C26.79 17.053 27.2193 16.8752 27.6668 16.8752C28.1144 16.8752 28.5436 17.053 28.8601 17.3695C29.1765 17.6859 29.3543 18.1152 29.3543 18.5627V24.2707L37.0367 20.4274C37.235 20.3282 37.4509 20.2691 37.6721 20.2534C37.8933 20.2377 38.1154 20.2657 38.3258 20.3358C38.5362 20.4059 38.7306 20.5168 38.8982 20.6621C39.0657 20.8074 39.203 20.9842 39.3021 21.1826C39.4013 21.3809 39.4604 21.5968 39.4761 21.818C39.4919 22.0392 39.4639 22.2613 39.3937 22.4717C39.3236 22.6821 39.2127 22.8765 39.0675 23.0441C38.9222 23.2116 38.7453 23.3489 38.547 23.448L29.3543 28.0422V40.6036C31.4506 41.649 33.7618 42.1914 36.1043 42.1877H36.4967C44.6768 41.9768 51.315 35.1508 51.2918 26.9622C51.2777 24.0664 50.4389 21.2345 48.8736 18.7981C47.3084 16.3617 45.0814 14.4216 42.4535 13.2049Z" fill="url(#paint1_linear_474_193)"></path>
              <defs>
                <linearGradient id="paint0_linear_474_193" x1="25.944" y1="47.571" x2="28.9549" y2="47.5653" gradientUnits="userSpaceOnUse">
                  <stop stop-color="#88F8FF"></stop>
                  <stop offset="1" stop-color="#30F9D5"></stop>
                </linearGradient>
                <linearGradient id="paint1_linear_474_193" x1="3.7267" y1="31.4078" x2="45.8767" y2="31.089" gradientUnits="userSpaceOnUse">
                  <stop stop-color="#88F8FF"></stop>
                  <stop offset="1" stop-color="#30F9D5"></stop>
                </linearGradient>
              </defs>
            </svg>