<svg xmlns="http://www.w3.org/2000/svg" width="100%" height="100%" viewBox="0 0 55 54" fill="none" preserveAspectRatio="xMidYMid meet" aria-hidden="true" role="img">
              <path opacity="0.4" d="M27.5 39.6309C27.5 39.6309 27.5 39.6309 27.4873 39.6309C26.9464 39.9911 26.3827 40.3159 25.7998 40.6033V48.9374C25.7998 49.385 25.9776 49.8142 26.2941 50.1307C26.6105 50.4471 27.0398 50.6249 27.4873 50.6249C27.9349 50.6249 28.3641 50.4471 28.6805 50.1307C28.997 49.8142 29.1748 49.385 29.1748 48.9374V40.6033C28.5919 40.3159 28.0282 39.9911 27.4873 39.6309H27.5Z" fill="url(#paint0_linear_474_1821)"></path>
              <path d="M42.2868 13.2049C41.0661 10.2903 39.0112 7.80138 36.3803 6.05098C33.7495 4.30057 30.66 3.3667 27.5001 3.3667C24.3401 3.3667 21.2506 4.30057 18.6198 6.05098C15.9889 7.80138 13.9341 10.2903 12.7133 13.2049C10.0866 14.4219 7.86049 16.3615 6.29537 18.7969C4.73026 21.2324 3.89077 24.0631 3.87506 26.958C3.85186 35.1466 10.4901 41.9768 18.6702 42.1877C21.1448 42.2523 23.5974 41.7083 25.8126 40.6036V33.1047L16.6199 28.5105C16.2193 28.3102 15.9148 27.959 15.7731 27.5342C15.6315 27.1093 15.6645 26.6456 15.8647 26.2451C16.065 25.8445 16.4162 25.5399 16.8411 25.3983C17.2659 25.2567 17.7297 25.2896 18.1302 25.4899L25.8126 29.3332V18.5627C25.8126 18.1152 25.9904 17.6859 26.3068 17.3695C26.6233 17.053 27.0525 16.8752 27.5001 16.8752C27.9476 16.8752 28.3768 17.053 28.6933 17.3695C29.0098 17.6859 29.1876 18.1152 29.1876 18.5627V24.2707L36.8699 20.4274C37.0682 20.3282 37.2842 20.2691 37.5054 20.2534C37.7266 20.2377 37.9487 20.2657 38.159 20.3358C38.3694 20.4059 38.5639 20.5168 38.7314 20.6621C38.8989 20.8074 39.0362 20.9842 39.1354 21.1826C39.2345 21.3809 39.2937 21.5968 39.3094 21.818C39.3251 22.0392 39.2971 22.2613 39.227 22.4717C39.1569 22.6821 39.046 22.8765 38.9007 23.0441C38.7554 23.2116 38.5786 23.3489 38.3802 23.448L29.1876 28.0422V40.6036C31.2839 41.649 33.595 42.1914 35.9376 42.1877H36.3299C44.5101 41.9768 51.1483 35.1508 51.1251 26.9622C51.1109 24.0664 50.2721 21.2345 48.7069 18.7981C47.1416 16.3617 44.9147 14.4216 42.2868 13.2049Z" fill="currentColor"></path>
              <path d="M42.2868 13.2049C41.0661 10.2903 39.0112 7.80138 36.3803 6.05098C33.7495 4.30057 30.66 3.3667 27.5001 3.3667C24.3401 3.3667 21.2506 4.30057 18.6198 6.05098C15.9889 7.80138 13.9341 10.2903 12.7133 13.2049C10.0866 14.4219 7.86049 16.3615 6.29537 18.7969C4.73026 21.2324 3.89077 24.0631 3.87506 26.958C3.85186 35.1466 10.4901 41.9768 18.6702 42.1877C21.1448 42.2523 23.5974 41.7083 25.8126 40.6036V33.1047L16.6199 28.5105C16.2193 28.3102 15.9148 27.959 15.7731 27.5342C15.6315 27.1093 15.6645 26.6456 15.8647 26.2451C16.065 25.8445 16.4162 25.5399 16.8411 25.3983C17.2659 25.2567 17.7297 25.2896 18.1302 25.4899L25.8126 29.3332V18.5627C25.8126 18.1152 25.9904 17.6859 26.3068 17.3695C26.6233 17.053 27.0525 16.8752 27.5001 16.8752C27.9476 16.8752 28.3768 17.053 28.6933 17.3695C29.0098 17.6859 29.1876 18.1152 29.1876 18.5627V24.2707L36.8699 20.4274C37.0682 20.3282 37.2842 20.2691 37.5054 20.2534C37.7266 20.2377 37.9487 20.2657 38.159 20.3358C38.3694 20.4059 38.5639 20.5168 38.7314 20.6621C38.8989 20.8074 39.0362 20.9842 39.1354 21.1826C39.2345 21.3809 39.2937 21.5968 39.3094 21.818C39.3251 22.0392 39.2971 22.2613 39.227 22.4717C39.1569 22.6821 39.046 22.8765 38.9007 23.0441C38.7554 23.2116 38.5786 23.3489 38.3802 23.448L29.1876 28.0422V40.6036C31.2839 41.649 33.595 42.1914 35.9376 42.1877H36.3299C44.5101 41.9768 51.1483 35.1508 51.1251 26.9622C51.1109 24.0664 50.2721 21.2345 48.7069 18.7981C47.1416 16.3617 44.9147 14.4216 42.2868 13.2049Z" fill="url(#paint1_linear_474_1821)"></path>
              <defs>
                <linearGradient id="paint0_linear_474_1821" x1="25.7773" y1="47.571" x2="28.7882" y2="47.5653" gradientUnits="userSpaceOnUse">
                  <stop stop-color="#30F981"></stop>
                  <stop offset="1" stop-color="#30F938"></stop>
                </linearGradient>
                <linearGradient id="paint1_linear_474_1821" x1="3.55995" y1="31.4078" x2="45.7099" y2="31.089" gradientUnits="userSpaceOnUse">
                  <stop stop-color="#30F981"></stop>
                  <stop offset="1" stop-color="#30F938"></stop>
                </linearGradient>
              </defs>
            </svg>